<?xml version="1.0" encoding="UTF-8"?>
<svg version="1.1" xmlns="http://www.w3.org/2000/svg" width="819" height="819">
<path d="M0 0 C1.25968597 0.00182281 2.51937195 0.00364563 3.81723022 0.00552368 C22.06639007 0.05000591 39.94903803 0.42693605 58 3.3125 C59.12857422 3.48410645 60.25714844 3.65571289 61.41992188 3.83251953 C117.16883895 12.45372437 171.33381761 32.00384107 219 62.3125 C219.9895166 62.93970947 219.9895166 62.93970947 220.99902344 63.57958984 C238.79676766 74.94909997 255.83056078 87.72677798 271.41796875 101.9765625 C272.82446183 103.24900254 274.23708262 104.5152703 275.6784668 105.74804688 C281.34459804 110.60410918 286.66194529 115.78828208 291.93579102 121.06298828 C293.42641615 122.55143237 294.92487017 124.03167277 296.42382812 125.51171875 C302.00951668 131.06569104 307.18077119 136.74886893 312.07763672 142.92871094 C313.86758052 145.14829581 315.73400802 147.2369669 317.6875 149.3125 C365.86734806 202.97388766 395.19423938 277.34653922 406.25 347.6875 C406.40114258 348.6472876 406.55228516 349.6070752 406.70800781 350.59594727 C407.18599221 353.83043425 407.60423862 357.06686333 408 360.3125 C408.08720306 361.02168579 408.17440613 361.73087158 408.26425171 362.46154785 C410.12481357 378.0736528 410.35964539 393.60352796 410.3125 409.3125 C410.30976578 411.20202896 410.30976578 411.20202896 410.30697632 413.12973022 C410.26249409 431.37889007 409.88556395 449.26153803 407 467.3125 C406.74259033 469.00536133 406.74259033 469.00536133 406.47998047 470.73242188 C397.85877563 526.48133895 378.30865893 580.64631761 348 628.3125 C347.58186035 628.97217773 347.1637207 629.63185547 346.73291016 630.31152344 C335.36340003 648.10926766 322.58572202 665.14306078 308.3359375 680.73046875 C307.06349746 682.13696183 305.7972297 683.54958262 304.56445312 684.9909668 C299.70839082 690.65709804 294.52421792 695.97444529 289.24951172 701.24829102 C287.76106763 702.73891615 286.28082723 704.23737017 284.80078125 705.73632812 C279.24680896 711.32201668 273.56363107 716.49327119 267.38378906 721.39013672 C265.16420419 723.18008052 263.0755331 725.04650802 261 727 C207.33861234 775.17984806 132.96596078 804.50673938 62.625 815.5625 C61.6652124 815.71364258 60.7054248 815.86478516 59.71655273 816.02050781 C56.48206575 816.49849221 53.24563667 816.91673862 50 817.3125 C49.29081421 817.39970306 48.58162842 817.48690613 47.85095215 817.57675171 C32.2388472 819.43731357 16.70897204 819.67214539 1 819.625 C-0.25968597 819.62317719 -1.51937195 819.62135437 -2.81723022 819.61947632 C-21.06639007 819.57499409 -38.94903803 819.19806395 -57 816.3125 C-58.69286133 816.05509033 -58.69286133 816.05509033 -60.41992188 815.79248047 C-116.16883895 807.17127563 -170.33381761 787.62115893 -218 757.3125 C-218.65967773 756.89436035 -219.31935547 756.4762207 -219.99902344 756.04541016 C-237.79676766 744.67590003 -254.83056078 731.89822202 -270.41796875 717.6484375 C-271.82446183 716.37599746 -273.23708262 715.1097297 -274.6784668 713.87695312 C-280.34459804 709.02089082 -285.66194529 703.83671792 -290.93579102 698.56201172 C-292.42641615 697.07356763 -293.92487017 695.59332723 -295.42382812 694.11328125 C-301.00951668 688.55930896 -306.18077119 682.87613107 -311.07763672 676.69628906 C-312.86758052 674.47670419 -314.73400802 672.3880331 -316.6875 670.3125 C-364.86734806 616.65111234 -394.19423938 542.27846078 -405.25 471.9375 C-405.47671387 470.4978186 -405.47671387 470.4978186 -405.70800781 469.02905273 C-406.18599221 465.79456575 -406.60423862 462.55813667 -407 459.3125 C-407.08720306 458.60331421 -407.17440613 457.89412842 -407.26425171 457.16345215 C-409.12481357 441.5513472 -409.35964539 426.02147204 -409.3125 410.3125 C-409.31067719 409.05281403 -409.30885437 407.79312805 -409.30697632 406.49526978 C-409.26249409 388.24610993 -408.88556395 370.36346197 -406 352.3125 C-405.82839355 351.18392578 -405.65678711 350.05535156 -405.47998047 348.89257812 C-396.85877563 293.14366105 -377.30865893 238.97868239 -347 191.3125 C-346.58186035 190.65282227 -346.1637207 189.99314453 -345.73291016 189.31347656 C-334.36340003 171.51573234 -321.58572202 154.48193922 -307.3359375 138.89453125 C-306.06349746 137.48803817 -304.7972297 136.07541738 -303.56445312 134.6340332 C-298.70839082 128.96790196 -293.52421792 123.65055471 -288.24951172 118.37670898 C-286.76106763 116.88608385 -285.28082723 115.38762983 -283.80078125 113.88867188 C-278.24680896 108.30298332 -272.56363107 103.13172881 -266.38378906 98.23486328 C-264.16420419 96.44491948 -262.0755331 94.57849198 -260 92.625 C-206.33861234 44.44515194 -131.96596078 15.11826062 -61.625 4.0625 C-60.1853186 3.83578613 -60.1853186 3.83578613 -58.71655273 3.60449219 C-55.48206575 3.12650779 -52.24563667 2.70826138 -49 2.3125 C-48.29081421 2.22529694 -47.58162842 2.13809387 -46.85095215 2.04824829 C-31.2388472 0.18768643 -15.70897204 -0.04714539 0 0 Z " fill="#105085" transform="translate(409,-0.3125)"/>
<path d="M0 0 C1.25968597 0.00182281 2.51937195 0.00364563 3.81723022 0.00552368 C22.06639007 0.05000591 39.94903803 0.42693605 58 3.3125 C59.12857422 3.48410645 60.25714844 3.65571289 61.41992188 3.83251953 C117.16883895 12.45372437 171.33381761 32.00384107 219 62.3125 C219.9895166 62.93970947 219.9895166 62.93970947 220.99902344 63.57958984 C238.79676766 74.94909997 255.83056078 87.72677798 271.41796875 101.9765625 C272.82446183 103.24900254 274.23708262 104.5152703 275.6784668 105.74804688 C281.34459804 110.60410918 286.66194529 115.78828208 291.93579102 121.06298828 C293.42641615 122.55143237 294.92487017 124.03167277 296.42382812 125.51171875 C302.00951668 131.06569104 307.18077119 136.74886893 312.07763672 142.92871094 C313.86758052 145.14829581 315.73400802 147.2369669 317.6875 149.3125 C365.86734806 202.97388766 395.19423938 277.34653922 406.25 347.6875 C406.40114258 348.6472876 406.55228516 349.6070752 406.70800781 350.59594727 C407.18599221 353.83043425 407.60423862 357.06686333 408 360.3125 C408.08720306 361.02168579 408.17440613 361.73087158 408.26425171 362.46154785 C410.12481357 378.0736528 410.35964539 393.60352796 410.3125 409.3125 C410.30976578 411.20202896 410.30976578 411.20202896 410.30697632 413.12973022 C410.26249409 431.37889007 409.88556395 449.26153803 407 467.3125 C406.74259033 469.00536133 406.74259033 469.00536133 406.47998047 470.73242188 C397.85877563 526.48133895 378.30865893 580.64631761 348 628.3125 C347.58186035 628.97217773 347.1637207 629.63185547 346.73291016 630.31152344 C335.36340003 648.10926766 322.58572202 665.14306078 308.3359375 680.73046875 C307.06349746 682.13696183 305.7972297 683.54958262 304.56445312 684.9909668 C299.70839082 690.65709804 294.52421792 695.97444529 289.24951172 701.24829102 C287.76106763 702.73891615 286.28082723 704.23737017 284.80078125 705.73632812 C279.24680896 711.32201668 273.56363107 716.49327119 267.38378906 721.39013672 C265.16420419 723.18008052 263.0755331 725.04650802 261 727 C207.33861234 775.17984806 132.96596078 804.50673938 62.625 815.5625 C61.6652124 815.71364258 60.7054248 815.86478516 59.71655273 816.02050781 C56.48206575 816.49849221 53.24563667 816.91673862 50 817.3125 C49.29081421 817.39970306 48.58162842 817.48690613 47.85095215 817.57675171 C32.2388472 819.43731357 16.70897204 819.67214539 1 819.625 C-0.25968597 819.62317719 -1.51937195 819.62135437 -2.81723022 819.61947632 C-21.06639007 819.57499409 -38.94903803 819.19806395 -57 816.3125 C-58.69286133 816.05509033 -58.69286133 816.05509033 -60.41992188 815.79248047 C-116.16883895 807.17127563 -170.33381761 787.62115893 -218 757.3125 C-218.65967773 756.89436035 -219.31935547 756.4762207 -219.99902344 756.04541016 C-237.79676766 744.67590003 -254.83056078 731.89822202 -270.41796875 717.6484375 C-271.82446183 716.37599746 -273.23708262 715.1097297 -274.6784668 713.87695312 C-280.34459804 709.02089082 -285.66194529 703.83671792 -290.93579102 698.56201172 C-292.42641615 697.07356763 -293.92487017 695.59332723 -295.42382812 694.11328125 C-301.00951668 688.55930896 -306.18077119 682.87613107 -311.07763672 676.69628906 C-312.86758052 674.47670419 -314.73400802 672.3880331 -316.6875 670.3125 C-364.86734806 616.65111234 -394.19423938 542.27846078 -405.25 471.9375 C-405.47671387 470.4978186 -405.47671387 470.4978186 -405.70800781 469.02905273 C-406.18599221 465.79456575 -406.60423862 462.55813667 -407 459.3125 C-407.08720306 458.60331421 -407.17440613 457.89412842 -407.26425171 457.16345215 C-409.12481357 441.5513472 -409.35964539 426.02147204 -409.3125 410.3125 C-409.31067719 409.05281403 -409.30885437 407.79312805 -409.30697632 406.49526978 C-409.26249409 388.24610993 -408.88556395 370.36346197 -406 352.3125 C-405.82839355 351.18392578 -405.65678711 350.05535156 -405.47998047 348.89257812 C-396.85877563 293.14366105 -377.30865893 238.97868239 -347 191.3125 C-346.58186035 190.65282227 -346.1637207 189.99314453 -345.73291016 189.31347656 C-334.36340003 171.51573234 -321.58572202 154.48193922 -307.3359375 138.89453125 C-306.06349746 137.48803817 -304.7972297 136.07541738 -303.56445312 134.6340332 C-298.70839082 128.96790196 -293.52421792 123.65055471 -288.24951172 118.37670898 C-286.76106763 116.88608385 -285.28082723 115.38762983 -283.80078125 113.88867188 C-278.24680896 108.30298332 -272.56363107 103.13172881 -266.38378906 98.23486328 C-264.16420419 96.44491948 -262.0755331 94.57849198 -260 92.625 C-206.33861234 44.44515194 -131.96596078 15.11826062 -61.625 4.0625 C-60.1853186 3.83578613 -60.1853186 3.83578613 -58.71655273 3.60449219 C-55.48206575 3.12650779 -52.24563667 2.70826138 -49 2.3125 C-48.29081421 2.22529694 -47.58162842 2.13809387 -46.85095215 2.04824829 C-31.2388472 0.18768643 -15.70897204 -0.04714539 0 0 Z M-154.4375 101.3125 C-155.0886377 101.6375351 -155.73977539 101.96257019 -156.41064453 102.29745483 C-173.53620889 110.88036321 -189.66415332 120.82940892 -205 132.3125 C-205.53496094 132.71001465 -206.06992188 133.1075293 -206.62109375 133.51708984 C-274.07706038 183.76531439 -324.32760156 258.31915237 -344.29614258 363.31243896 C-348.77092997 395.04091322 -349.08056083 428.65599563 -344 460.3125 C-343.70198486 462.19557861 -343.70198486 462.19557861 -343.39794922 464.11669922 C-339.34472102 489.25834772 -332.99471531 513.51208301 -322.98242188 536.98144531 C-322.00251906 539.30652288 -321.06685909 541.64527089 -320.140625 543.9921875 C-309.63678232 570.30246464 -294.50688715 595.0932327 -277 617.3125 C-275.94039062 618.67375 -275.94039062 618.67375 -274.859375 620.0625 C-272.93440015 622.50393152 -270.97814304 624.91395464 -269 627.3125 C-268.5786377 627.82409668 -268.15727539 628.33569336 -267.72314453 628.86279297 C-262.63581865 635.01923384 -257.50763449 640.99134554 -251.76171875 646.55078125 C-250.05939094 648.25310906 -248.52950873 650.01744651 -247 651.875 C-244.27313735 655.13393341 -241.22647202 657.82422187 -237.9921875 660.5703125 C-236.12494265 662.20323643 -234.40737604 663.90179139 -232.6875 665.6875 C-228.13015103 670.30643477 -223.06514273 674.26950047 -218 678.3125 C-216.52660156 679.52873047 -216.52660156 679.52873047 -215.0234375 680.76953125 C-199.85308349 693.16726651 -183.20930921 704.11471897 -165.90527344 713.29589844 C-163.89681888 714.36755461 -161.90537289 715.46715847 -159.9140625 716.5703125 C-97.11349763 751.04089345 -18.67253692 764.08706741 52 752.3125 C53.93735208 752.01855467 55.87485451 751.72559874 57.8125 751.43359375 C107.48154557 743.65706394 155.95719265 724.39599074 197 695.3125 C197.79035645 694.75272461 198.58071289 694.19294922 199.39501953 693.61621094 C222.7934735 676.93031364 245.60518661 657.5042388 264 635.3125 C264.4439209 634.78237305 264.8878418 634.25224609 265.34521484 633.70605469 C279.42381803 616.8554278 291.78323016 599.18803205 303 580.3125 C303.42796875 579.59320312 303.8559375 578.87390625 304.296875 578.1328125 C329.67504025 535.1217662 343.67857649 486.90556946 348 437.3125 C348.10586426 436.19657471 348.10586426 436.19657471 348.21386719 435.05810547 C351.07765319 404.51863093 347.98505294 374.69995149 342.59960938 344.67333984 C342.1040263 341.89557252 341.63373557 339.11550315 341.171875 336.33203125 C332.38174404 286.64988039 306.5046445 237.13864639 275 198.3125 C274.2678125 197.38953125 273.535625 196.4665625 272.78125 195.515625 C264.00612499 184.57761707 254.36367279 174.5737943 244.5 164.625 C243.63407227 163.74602051 242.76814453 162.86704102 241.87597656 161.96142578 C235.89820192 155.97577677 229.62255802 150.56968057 223 145.3125 C221.69903969 144.25181407 220.39937709 143.18953259 219.1015625 142.125 C211.31487954 135.80296543 203.38601203 129.82796715 195 124.3125 C194.32549805 123.86438965 193.65099609 123.4162793 192.95605469 122.95458984 C180.10724121 114.46057557 166.77296653 107.19046491 153 100.3125 C152.15904785 99.88807617 151.3180957 99.46365234 150.45166016 99.02636719 C139.38358849 93.46677769 128.18244938 88.98921601 116.42138672 85.11669922 C114.08626532 84.34115073 111.76316961 83.53721285 109.44140625 82.72265625 C24.10347869 53.02647914 -73.98644793 61.07283539 -154.4375 101.3125 Z " fill="#F2F2F4" transform="translate(409,-0.3125)"/>
<path d="M0 0 C8.8344741 3.56747394 16.01605991 10.30859545 20.37890625 18.72265625 C23.32416906 27.31436212 22.90133867 37.86540465 19.01953125 46.06640625 C14.55934469 53.38311678 9.54143782 58.0978665 1.62890625 61.34765625 C1.124366 68.84568503 1.48131353 74.90479378 5.62890625 81.34765625 C7.98723397 83.81974421 7.98723397 83.81974421 10.62890625 85.34765625 C11.17933594 85.7034375 11.72976563 86.05921875 12.296875 86.42578125 C15.62404142 87.74104302 18.91509206 87.59981854 22.44140625 87.66015625 C29.03432092 87.93005462 32.92920277 88.54114132 37.62890625 93.34765625 C42.34263914 99.42589077 42.77861468 103.88175058 42.7265625 111.39453125 C42.72514755 112.16573303 42.7237326 112.93693481 42.72227478 113.73150635 C42.71669159 116.18692963 42.7041422 118.64226067 42.69140625 121.09765625 C42.68638908 122.76562368 42.68182655 124.43359254 42.67773438 126.1015625 C42.66757991 130.18365761 42.64800132 134.26555405 42.62890625 138.34765625 C53.51890625 138.34765625 64.40890625 138.34765625 75.62890625 138.34765625 C75.63377143 128.37680828 75.61342538 118.4068884 75.54862785 108.43624496 C75.51954912 103.80648095 75.5015439 99.17722425 75.50878906 94.54736328 C75.51537413 90.07956518 75.49294523 85.61277025 75.45035172 81.14517975 C75.43920565 79.440377 75.43853393 77.73547269 75.44848251 76.03066254 C75.46063221 73.6427 75.43562374 71.25781045 75.40185547 68.87011719 C75.41407639 68.16449142 75.4262973 67.45886566 75.43888855 66.7318573 C75.44545676 64.49294021 75.44545676 64.49294021 74.62890625 61.34765625 C71.8087168 58.88980345 71.8087168 58.88980345 68.62890625 57.34765625 C60.85981679 51.83924446 55.29144761 43.824142 53.62890625 34.34765625 C52.46838281 25.45974502 54.51784013 18.70465286 59.62890625 11.34765625 C66.11169437 4.60221373 73.22888577 1.289212 82.50390625 0.91015625 C92.53416664 1.23777782 99.32911369 5.01472005 106.48828125 11.9375 C112.22671283 18.39847132 113.31557657 24.66906026 113.0078125 33.20703125 C111.70494087 44.00609096 104.16650002 52.54817776 96.109375 59.3515625 C94.62890625 60.34765625 94.62890625 60.34765625 92.62890625 60.34765625 C92.62890625 86.08765625 92.62890625 111.82765625 92.62890625 138.34765625 C98.89890625 138.34765625 105.16890625 138.34765625 111.62890625 138.34765625 C113.93890625 138.67765625 116.24890625 139.00765625 118.62890625 139.34765625 C118.59410156 138.66960937 118.55929687 137.9915625 118.5234375 137.29296875 C118.07145438 121.75335876 124.52452036 112.50351009 134.67578125 101.31640625 C136.62890625 99.34765625 136.62890625 99.34765625 138.62890625 98.34765625 C136.86846715 94.39761627 134.34203579 91.74045934 131.3828125 88.640625 C127.31247788 83.3192744 126.09282044 77.99568838 126.19140625 71.41015625 C126.19825439 70.70648926 126.20510254 70.00282227 126.2121582 69.27783203 C126.38439575 63.71333375 127.32672662 59.79415555 130.62890625 55.34765625 C131.33015625 54.31640625 132.03140625 53.28515625 132.75390625 52.22265625 C138.78599874 45.40862584 147.61223175 41.75222677 156.50390625 41.03515625 C163.50846097 41.23877703 170.30525013 43.83412171 175.62890625 48.34765625 C182.82398725 56.91986029 186.3782759 65.10790993 186.03515625 76.359375 C184.84039851 85.14773724 179.4891636 92.01546245 172.62890625 97.34765625 C167.05956588 101.03646196 161.21339044 104.30155551 155.01953125 106.80859375 C146.86314481 110.51091663 140.39524971 117.53833499 136.57421875 125.5625 C135.41746087 128.97063376 135.20518031 132.07076883 135.00390625 135.66015625 C134.89175781 137.54154297 134.89175781 137.54154297 134.77734375 139.4609375 C134.70386719 140.88986328 134.70386719 140.88986328 134.62890625 142.34765625 C135.82515625 142.51265625 137.02140625 142.67765625 138.25390625 142.84765625 C149.68958347 145.42293474 159.57920792 153.16329754 167.62890625 161.34765625 C168.17804688 161.89808594 168.7271875 162.44851563 169.29296875 163.015625 C181.25147003 175.96533896 188.91185613 193.67615031 188.62890625 211.34765625 C189.75167969 211.27804687 190.87445312 211.2084375 192.03125 211.13671875 C206.65649405 210.5015485 206.65649405 210.5015485 212.96875 215.70703125 C219.94269573 222.59893056 221.95382283 228.6537371 222.0970459 238.26985168 C222.09734802 239.97318916 222.09734802 239.97318916 222.09765625 241.7109375 C222.10526978 242.8980986 222.1128833 244.0852597 222.12072754 245.30839539 C222.13150666 247.81389265 222.13439058 250.31943477 222.12988281 252.82495117 C222.12891206 256.63732761 222.17053149 260.44768016 222.21484375 264.25976562 C222.2200525 266.70181875 222.22273892 269.14387882 222.22265625 271.5859375 C222.23905151 272.71542313 222.25544678 273.84490875 222.27233887 275.00862122 C222.20152587 283.21047475 220.53123353 289.98181227 214.9510498 296.22480774 C207.07815982 303.72564728 198.15835903 305.02217085 187.62890625 305.34765625 C187.50515625 305.96769531 187.38140625 306.58773438 187.25390625 307.2265625 C182.59167583 327.24501435 169.30959306 343.68747963 152.19140625 354.66015625 C147.17629571 357.6704124 142.31738462 359.74108767 136.67578125 361.265625 C134.35550297 362.19162865 134.35550297 362.19162865 133.76953125 364.8984375 C133.723125 365.70667969 133.67671875 366.51492188 133.62890625 367.34765625 C133.95890625 367.67765625 134.28890625 368.00765625 134.62890625 368.34765625 C134.89716178 372.77923761 134.90032017 377.21678439 134.92407227 381.65551758 C134.9411522 383.87711208 134.98499674 386.0971657 135.02929688 388.31835938 C135.12825396 397.177804 134.77048503 403.62148086 128.6640625 410.58984375 C128.01308594 411.12867188 127.36210938 411.6675 126.69140625 412.22265625 C126.04300781 412.77695312 125.39460937 413.33125 124.7265625 413.90234375 C119.999434 417.15939691 115.61704898 417.64837214 109.9921875 417.69140625 C109.2715361 417.70602905 108.5508847 417.72065186 107.80839539 417.73571777 C104.74052122 417.79775257 101.67245584 417.8377287 98.60424805 417.87939453 C96.3583441 417.91305346 94.11287233 417.95815665 91.8671875 418.00390625 C90.82344719 418.0118219 90.82344719 418.0118219 89.75862122 418.01989746 C85.74765196 417.99936137 85.74765196 417.99936137 82.62890625 420.34765625 C82.42561205 422.50838319 82.31521547 424.67825296 82.25390625 426.84765625 C81.70983345 435.56174035 80.30174467 442.25052946 73.75390625 448.34765625 C67.99456872 453.1976247 61.92152016 453.71065606 54.69140625 453.72265625 C53.91861328 453.74714844 53.14582031 453.77164062 52.34960938 453.796875 C45.76511355 453.83027058 41.80928174 452.04834701 36.73828125 447.7421875 C30.67444385 440.68513536 29.02682219 433.50780256 29.2734375 424.27734375 C29.8192495 419.77889322 31.37988662 416.2428655 33.62890625 412.34765625 C34.26828125 411.23390625 34.90765625 410.12015625 35.56640625 408.97265625 C37.81307502 406.11325963 39.37212776 404.9280682 42.62890625 403.34765625 C45.87109375 402.97875977 45.87109375 402.97875977 49.50390625 402.9765625 C50.81875 402.95916016 52.13359375 402.94175781 53.48828125 402.92382812 C55.56189893 402.91375486 57.63534322 402.91016154 59.70898438 402.91186523 C61.72405541 402.90828395 63.73903561 402.88020527 65.75390625 402.8515625 C66.95273437 402.84970947 68.1515625 402.84785645 69.38671875 402.84594727 C73.34600748 402.23744513 74.9776685 401.34534861 77.62890625 398.34765625 C78.36393839 395.21883907 78.36393839 395.21883907 78.22265625 391.71875 C78.22007812 390.43677734 78.2175 389.15480469 78.21484375 387.83398438 C78.2003418 387.16955322 78.18583984 386.50512207 78.17089844 385.82055664 C78.12895651 383.78759236 78.12983695 381.75793431 78.13671875 379.72460938 C78.47799423 373.27248272 78.47799423 373.27248272 76.28710938 367.50415039 C72.62753497 364.95182354 69.01713363 365.1862745 64.70166016 365.11401367 C64.00033966 365.10078568 63.29901917 365.08755768 62.57644653 365.07392883 C61.05251978 365.04537756 59.52855617 365.01874429 58.00456619 364.99379539 C55.58103123 364.95271073 53.15779356 364.90350108 50.73446655 364.85163879 C43.84353465 364.70434367 36.95263861 364.56123 30.06103516 364.44897461 C25.84257227 364.37966427 21.62482288 364.29186519 17.40696335 364.19259071 C15.81017322 364.15839392 14.21322528 364.13081749 12.61619949 364.11040306 C-8.23925824 363.83690451 -27.87929526 356.75991658 -42.90136719 341.91308594 C-55.54443697 328.4467465 -62.86104757 311.70477549 -62.77514648 293.19165039 C-62.78200974 292.13642685 -62.78887299 291.08120331 -62.79594421 289.9940033 C-62.81409752 286.5401323 -62.81039116 283.08672051 -62.8046875 279.6328125 C-62.80925461 277.211053 -62.81456176 274.7892948 -62.8205719 272.36753845 C-62.8294804 267.30494911 -62.82710537 262.24251771 -62.81713867 257.17993164 C-62.80564912 250.71640043 -62.82587261 244.25341558 -62.85505581 237.78995609 C-62.8734666 232.79256267 -62.87311563 227.79529902 -62.86741829 222.79788017 C-62.86726569 220.41582917 -62.87325891 218.03376903 -62.88570976 215.65175056 C-62.9922794 191.92472939 -62.9922794 191.92472939 -58.37109375 182.34765625 C-58.09085861 181.70771225 -57.81062347 181.06776825 -57.52189636 180.40843201 C-50.33609809 164.74769491 -37.50946739 150.77279231 -21.1340332 144.48925781 C-18.70422324 143.6668377 -16.26392734 142.90273554 -13.80859375 142.16015625 C-12.98423828 141.90041016 -12.15988281 141.64066406 -11.31054688 141.37304688 C-4.94282194 139.40317513 0.9807099 138.21544905 7.68359375 138.25 C8.68374512 138.25249756 9.68389648 138.25499512 10.71435547 138.25756836 C12.59018311 138.27122437 12.59018311 138.27122437 14.50390625 138.28515625 C20.50578125 138.31609375 20.50578125 138.31609375 26.62890625 138.34765625 C26.62890625 126.79765625 26.62890625 115.24765625 26.62890625 103.34765625 C22.00890625 103.34765625 17.38890625 103.34765625 12.62890625 103.34765625 C3.29462509 101.28862364 -3.91682583 93.98813899 -9.37109375 86.34765625 C-12.21415963 80.97458118 -12.76957734 76.82310647 -12.55859375 70.91015625 C-12.54505859 70.17861328 -12.53152344 69.44707031 -12.51757812 68.69335938 C-12.48263249 66.91113203 -12.4288418 65.12929052 -12.37109375 63.34765625 C-12.92796875 63.20070312 -13.48484375 63.05375 -14.05859375 62.90234375 C-22.65726406 60.37503187 -29.25252532 55.80614168 -34.37109375 48.34765625 C-38.23141192 40.68928311 -38.58483064 31.94702911 -36.78515625 23.64453125 C-33.38216671 13.71654342 -25.57897421 6.07975756 -16.37109375 1.34765625 C-15.73171875 0.98414063 -15.09234375 0.620625 -14.43359375 0.24609375 C-9.89348871 -1.73160352 -4.69816307 -1.29257534 0 0 Z " fill="#51BFE1" transform="translate(486.37109375,165.65234375)"/>
<path d="M0 0 C0.79900386 -0.00523668 1.59800772 -0.01047336 2.42122382 -0.01586872 C5.09570128 -0.03085765 7.76998722 -0.03157363 10.44450378 -0.03224182 C12.36327436 -0.03986404 14.28204188 -0.04829165 16.20080566 -0.0574646 C21.41163025 -0.07941008 26.62239615 -0.08820857 31.83326173 -0.09329104 C35.08957951 -0.09693451 38.34588191 -0.10317452 41.60219383 -0.11029243 C52.96467642 -0.13478695 64.32711334 -0.14783887 75.68962097 -0.15138245 C86.27733823 -0.15501787 96.86476564 -0.18491382 107.45239431 -0.22678703 C116.54554863 -0.26148769 125.63860687 -0.27693085 134.73182696 -0.27762848 C140.16141503 -0.27842136 145.59070783 -0.28716519 151.02022743 -0.31562614 C156.12817452 -0.3418028 161.23558143 -0.34401406 166.34356499 -0.3279705 C168.21562503 -0.32615572 170.08771611 -0.33284943 171.95970917 -0.34878922 C189.04984504 -0.48540906 189.04984504 -0.48540906 194.6425581 3.90240383 C200.12414235 9.3946642 203.29608045 13.62639877 203.32414246 21.58665466 C203.19847909 27.82793513 202.87334685 32.16103438 198.49992371 36.91868591 C191.70991413 43.18990824 185.30749979 44.7211178 176.31291199 44.70652771 C175.35780385 44.7167052 174.40269571 44.72688269 173.41864491 44.73736858 C170.24385621 44.76757854 167.06936888 44.77677534 163.89445496 44.78587341 C161.63488824 44.80300858 159.37533072 44.82139764 157.11578369 44.84095764 C151.04641042 44.88952122 144.9770835 44.91943471 138.9075737 44.94472122 C133.88250292 44.9672864 128.85750523 44.99883721 123.83248425 45.03040981 C112.41682252 45.10204947 101.00116029 45.15960212 89.58537292 45.20677185 C79.35997568 45.24926418 69.13500407 45.31364494 58.90987396 45.39836025 C51.28971686 45.4611021 43.66958075 45.510147 36.04924774 45.54576206 C31.71669732 45.56617299 27.38439075 45.59233884 23.05198669 45.63386536 C19.03917077 45.67171082 15.02673496 45.69011446 11.01374626 45.69329453 C9.57280635 45.69762647 8.13186628 45.70869401 6.69104195 45.72745132 C-2.5936628 45.84341239 -10.99507677 45.37120556 -18.42585754 39.27415466 C-18.94148254 38.61415466 -19.45710754 37.95415466 -19.98835754 37.27415466 C-20.52460754 36.61415466 -21.06085754 35.95415466 -21.61335754 35.27415466 C-25.77289457 29.22391899 -25.9547625 23.50523735 -24.98835754 16.27415466 C-22.21015276 9.71184337 -17.15093675 4.39281599 -10.80403614 1.16238308 C-7.18213557 0.01982547 -3.75808033 -0.01222195 0 0 Z " fill="#61CAE8" transform="translate(182.9883575439453,400.72584533691406)"/>
<path d="M0 0 C1.1936621 -0.00785502 1.1936621 -0.00785502 2.41143858 -0.01586872 C5.06899095 -0.03083023 7.72635012 -0.03157302 10.38394165 -0.03224182 C12.29300764 -0.0398658 14.20207057 -0.04829371 16.11112976 -0.0574646 C21.29090444 -0.07939068 26.47062009 -0.08820577 31.65043592 -0.09329104 C34.88783053 -0.09693632 38.1252097 -0.10317722 41.36259842 -0.11029243 C52.66024707 -0.13477868 63.95784985 -0.14783741 75.25552368 -0.15138245 C85.78134642 -0.15501885 96.30687778 -0.184924 106.83261144 -0.22678703 C115.87483098 -0.26148733 124.91695392 -0.27693083 133.9592396 -0.27762848 C139.35751436 -0.27842126 144.7554921 -0.28716118 150.15369797 -0.31562614 C155.23129061 -0.34180272 160.30833984 -0.34401413 165.38596916 -0.3279705 C167.24674222 -0.3261558 169.10754651 -0.33284864 170.96825218 -0.34878922 C181.61270949 -0.4344026 188.82412388 -0.40243297 196.98794556 7.18821716 C197.44298462 7.75282654 197.89802368 8.31743591 198.36685181 8.89915466 C198.83993774 9.46892029 199.31302368 10.03868591 199.80044556 10.62571716 C202.28479718 14.25338632 202.12491952 17.8273286 202.17935181 22.08665466 C202.21802368 23.89069763 202.21802368 23.89069763 202.25747681 25.73118591 C201.76466286 31.05240312 199.82358217 35.00042488 195.74185181 38.46165466 C195.21204712 38.92958435 194.68224243 39.39751404 194.13638306 39.87962341 C186.50076369 44.7042537 179.25370079 44.71660134 170.45645142 44.70652771 C169.10296748 44.71556147 167.74949168 44.7258926 166.39602661 44.7374115 C162.72608448 44.76494615 159.05629758 44.77427094 155.38626552 44.78026557 C151.49110835 44.78974388 147.59606146 44.81599361 143.70097351 44.840271 C136.27740195 44.88398264 128.85385163 44.91245663 121.43019062 44.93559438 C113.16912236 44.96212551 104.90818052 45.00631253 96.64719844 45.05179191 C86.25587048 45.10889232 75.8646063 45.16209185 65.47314453 45.18696594 C64.70197481 45.18884395 63.93080509 45.19072196 63.13626659 45.19265687 C56.9933877 45.2074935 56.9933877 45.2074935 53.97180247 45.21433234 C45.18282167 45.23538536 36.396125 45.29241138 27.60787487 45.41860104 C23.19596336 45.4809727 18.78396545 45.52616445 14.37182808 45.56917763 C12.40671121 45.59341085 10.44167869 45.62647872 8.47688103 45.66939354 C-11.77408139 46.10945953 -11.77408139 46.10945953 -19.98445129 38.50054932 C-24.38515036 33.88428784 -26.11140401 29.24709871 -26.38314819 22.89915466 C-26.18446304 16.96840296 -25.12005082 12.54457129 -21.07846069 8.06712341 C-14.46570282 1.88853651 -9.0629414 -0.02974686 0 0 Z " fill="#4FBFE2" transform="translate(184.07064819335938,494.72584533691406)"/>
<path d="M0 0 C0.79169118 -0.00382555 1.58338236 -0.00765109 2.39906418 -0.01159257 C5.04281388 -0.02188308 7.68634479 -0.01793795 10.33010864 -0.01396179 C12.22932129 -0.01831047 14.12853219 -0.02349414 16.02774048 -0.02944946 C21.18067034 -0.04283436 26.33352684 -0.04341866 31.4864707 -0.04088616 C35.79061222 -0.03981605 40.09473892 -0.04470089 44.39887726 -0.04949158 C54.55467661 -0.06058514 64.71043898 -0.0610251 74.86624146 -0.05497742 C85.33745823 -0.0489377 95.80854064 -0.06124898 106.27973449 -0.08254749 C115.27524384 -0.10017055 124.27071045 -0.1061637 133.26623642 -0.10290974 C138.6364807 -0.10109778 144.00662913 -0.10372443 149.37685776 -0.11762428 C154.42808747 -0.13020932 159.47910793 -0.12825204 164.53033447 -0.11521339 C166.38142086 -0.1128495 168.232522 -0.11557559 170.08359146 -0.12383652 C172.61619051 -0.13432166 175.14808972 -0.12618938 177.68066406 -0.11352539 C178.40811258 -0.12089968 179.1355611 -0.12827396 179.88505352 -0.13587171 C185.90923058 -0.07277134 191.26453976 1.27363816 196.20950317 4.90913391 C196.7483313 5.47889954 197.28715942 6.04866516 197.84231567 6.63569641 C198.39661255 7.20030579 198.95090942 7.76491516 199.52200317 8.34663391 C204.00129758 14.27867245 203.76812673 21.14612237 202.96731567 28.26069641 C201.05720157 34.33752452 197.74145641 38.06456578 192.32278442 41.28804016 C186.27184639 43.78668621 180.42820027 44.55638141 173.92863464 44.52139282 C173.16044149 44.52521837 172.39224834 44.52904392 171.60077661 44.53298539 C169.04848718 44.54323425 166.49642614 44.53933883 163.94412231 44.53535461 C162.10534967 44.53970556 160.26657883 44.54488998 158.42781067 44.55084229 C153.44847954 44.56420161 148.46922445 44.56481442 143.48987889 44.56227899 C139.3273948 44.56120731 135.16492597 44.56609762 131.00244516 44.57088441 C121.18025816 44.58196875 111.35810941 44.58242287 101.53591919 44.57637024 C91.41458972 44.57032905 81.29339922 44.58264764 71.17209345 44.60394031 C62.47036831 44.6215711 53.76868735 44.62755538 45.06694502 44.62430257 C39.87499074 44.62249211 34.68313563 44.62510233 29.49119759 44.63901711 C24.60819492 44.65161504 19.72540857 44.64963271 14.84240913 44.63660622 C13.0546308 44.63424527 11.26683714 44.6369578 9.47907639 44.64522934 C-9.6289618 44.72723539 -9.6289618 44.72723539 -18.34518433 39.13569641 C-23.17990352 33.96367123 -25.23807647 28.77860523 -25.53268433 21.69819641 C-25.22360391 14.55943588 -22.90055637 9.71006869 -17.65768433 4.88569641 C-12.45411617 0.47129499 -6.59379553 -0.03404802 0 0 Z " fill="#74D5EE" transform="translate(183.03268432617188,306.7393035888672)"/>
<path d="M0 0 C6.25329523 2.5399698 11.06919319 6.60173753 13.94921875 12.703125 C15.89764807 18.40348848 16.09514959 25.2379015 13.984375 30.91796875 C10.90388539 36.11815218 6.71069968 40.53002719 0.89453125 42.46875 C-8.48677465 43.1279769 -14.51156755 42.6214273 -22.29296875 37.28125 C-26.69524299 32.87897576 -28.70815467 28.85263451 -29.73046875 22.71875 C-29.33193451 15.99680588 -25.75089845 9.06029132 -20.99609375 4.40234375 C-14.42487806 -0.5740331 -8.22614638 -2.07561393 0 0 Z " fill="#0C497D" transform="translate(605.10546875,380.53125)"/>
<path d="M0 0 C5.45390899 3.1182942 8.76769124 8.13901121 10.71484375 13.98046875 C11.39821081 21.11677337 11.6932001 27.40881363 7.26953125 33.33203125 C2.02200376 38.89599256 -3.54749214 41.68382874 -11.22265625 42.29296875 C-18.16125664 42.08150664 -23.45985901 38.80576599 -28.28515625 33.98046875 C-32.31933156 27.66026076 -32.14053311 20.28471628 -31.28515625 12.98046875 C-29.68450992 9.06724683 -27.87343278 6.16863928 -24.84765625 3.23046875 C-24.27144531 2.658125 -23.69523437 2.08578125 -23.1015625 1.49609375 C-16.60597088 -3.92388377 -7.47866446 -3.25757777 0 0 Z " fill="#0D4A7F" transform="translate(503.28515625,382.01953125)"/>
<path d="M0 0 C0.87269531 -0.01417969 1.74539063 -0.02835937 2.64453125 -0.04296875 C5.36320266 0.2034239 6.91131213 0.70131226 9.1875 2.1875 C11.20484527 5.2135179 11.43994499 5.80432121 11.4621582 9.1965332 C11.47645622 10.39842033 11.47645622 10.39842033 11.49104309 11.62458801 C11.49013168 12.48710678 11.48922028 13.34962555 11.48828125 14.23828125 C11.49256638 15.12984421 11.4968515 16.02140717 11.50126648 16.93998718 C11.50701012 18.82708894 11.50750979 20.71421284 11.50317383 22.60131836 C11.50002328 25.47874134 11.5234395 28.35512674 11.54882812 31.23242188 C11.55110216 33.06770704 11.55180413 34.90299496 11.55078125 36.73828125 C11.559991 37.59472733 11.56920074 38.4511734 11.57868958 39.33357239 C11.53337426 45.2316332 10.61061766 49.59130251 6.4375 54.0625 C3.2587673 55.65186635 0.69167853 55.44234935 -2.8125 55.1875 C-3.8025 54.8575 -4.7925 54.5275 -5.8125 54.1875 C-5.83776648 46.65780348 -5.85533141 39.1281178 -5.86743164 31.59838867 C-5.8724737 29.03458243 -5.87930714 26.47077909 -5.88793945 23.90698242 C-5.90001064 20.23094979 -5.90572942 16.55495502 -5.91015625 12.87890625 C-5.91531754 11.72475723 -5.92047882 10.57060822 -5.92579651 9.38148499 C-5.92587204 8.32046066 -5.92594757 7.25943634 -5.92602539 6.16625977 C-5.928246 5.22694107 -5.93046661 4.28762238 -5.93275452 3.31983948 C-5.70610068 -0.69916078 -3.50943006 0.02569129 0 0 Z " fill="#0A4579" transform="translate(680.8125,395.8125)"/>
<path d="M0 0 C3.31912483 2.4677508 6.14071462 5.28142923 8 9 C8.77700439 14.84228618 8.82732719 19.65075431 5.3125 24.5625 C2.77641041 27.44066679 0.89186661 29.36644032 -3 30 C-7.75647716 30.1237745 -11.63477806 29.7073086 -15.4375 26.6875 C-19.93577745 21.96979438 -20.56080403 18.24389298 -20.44921875 11.83203125 C-19.70704633 7.15311818 -17.40118543 4.18962844 -14 1 C-9.78300019 -1.84932419 -4.72820007 -1.54917135 0 0 Z " fill="#165B91" transform="translate(576,183)"/>
<path d="M0 0 C3.71677629 1.72276613 5.60580653 4.17577729 7.375 7.875 C8.62674666 14.1337333 8.35931496 18.68929546 5.25390625 24.26171875 C3.17820493 27.13924862 1.39529869 28.03906641 -2 29 C-6.18229178 29.36792154 -9.5687493 29.19569069 -12.875 26.43359375 C-16.98264667 21.70387559 -18.29891355 18.55914241 -18.21875 12.31640625 C-17.90573495 9.00180044 -16.80572552 6.77307848 -15 4 C-14.505 3.21625 -14.01 2.4325 -13.5 1.625 C-9.2895815 -1.11177203 -4.85076623 -0.80729105 0 0 Z " fill="#175F95" transform="translate(484,183)"/>
<path d="M0 0 C3.04311525 2.53698382 5.2331586 5.4663172 7 9 C7.54636649 15.44712464 6.73885508 18.70328864 3 24 C1.07700832 26.20787934 -0.17490259 26.85959145 -3.04296875 27.34765625 C-7.21309668 27.62007667 -10.10679227 27.40147249 -13.4375 24.75 C-17.76895873 20.10160527 -18.45424927 16.71235035 -18.31640625 10.47265625 C-17.71110572 5.74234473 -15.26538328 3.12076805 -11.8125 0.0625 C-7.66412555 -1.50466368 -4.19377203 -1.4814555 0 0 Z " fill="#115389" transform="translate(648,224)"/>
<path d="M0 0 C1.06089844 -0.03738281 2.12179687 -0.07476563 3.21484375 -0.11328125 C6.0625 0.3125 6.0625 0.3125 7.91796875 2.046875 C9.17653021 4.53822533 9.46568569 6.09870923 9.4375 8.875 C9.44523438 9.63941406 9.45296875 10.40382813 9.4609375 11.19140625 C8.95206627 13.90039723 8.33212822 14.75395701 6.0625 16.3125 C3.46875 16.74609375 3.46875 16.74609375 0.5625 16.75 C-0.3965625 16.76933594 -1.355625 16.78867187 -2.34375 16.80859375 C-4.9375 16.3125 -4.9375 16.3125 -6.76953125 14.64453125 C-8.21474229 11.75894265 -8.23968995 9.77381847 -8.125 6.5625 C-8.09792969 5.57765625 -8.07085938 4.5928125 -8.04296875 3.578125 C-8.00816406 2.83046875 -7.97335937 2.0828125 -7.9375 1.3125 C-5.23707819 -0.0377109 -3.01298373 0.06938993 0 0 Z " fill="#074072" transform="translate(541.9375,584.6875)"/>
<path d="M0 0 C1.98 0.66 3.96 1.32 6 2 C6 2.66 6 3.32 6 4 C6.96663071 4.35090195 6.96663071 4.35090195 7.95278931 4.70889282 C10 6 10 6 10.61239624 8.0574646 C10.65957794 8.91554718 10.70675964 9.77362976 10.75537109 10.65771484 C10.83812286 12.14594757 10.83812286 12.14594757 10.92254639 13.66424561 C11.06822324 19.93822269 11.02361009 26.20258513 10.9140625 32.4765625 C10.8922417 33.93817613 10.87079456 35.39979538 10.84970093 36.86141968 C10.80457349 39.89873352 10.75538094 42.93594519 10.703125 45.97314453 C10.63631044 49.87261037 10.57926518 53.77214862 10.52509499 57.67180824 C10.48239307 60.67774537 10.43494739 63.68359273 10.38599777 66.68943405 C10.36307384 68.1287864 10.34156755 69.56816203 10.32149124 71.00755692 C10.2928483 73.00592615 10.25720451 75.0041914 10.22119141 77.00244141 C10.20263092 78.13952545 10.18407043 79.2766095 10.16494751 80.44815063 C10 83 10 83 9 84 C6.47905924 84.08847743 3.98569107 84.11527301 1.46484375 84.09765625 C0.33496788 84.09553383 0.33496788 84.09553383 -0.81773376 84.09336853 C-3.2326956 84.08775376 -5.64756601 84.07519883 -8.0625 84.0625 C-9.69596221 84.0574869 -11.32942586 84.05292366 -12.96289062 84.04882812 C-16.97529585 84.03777954 -20.98763241 84.02050506 -25 84 C-25 83.67 -25 83.34 -25 83 C-14.11 83 -3.22 83 8 83 C8.00486518 73.02915203 7.98451913 63.05923215 7.9197216 53.08858871 C7.89064287 48.4588247 7.87263765 43.829568 7.87988281 39.19970703 C7.88646788 34.73190893 7.86403898 30.265114 7.82144547 25.7975235 C7.8102994 24.09272075 7.80962768 22.38781644 7.81957626 20.68300629 C7.83172596 18.29504375 7.80671749 15.9101542 7.77294922 13.52246094 C7.78517014 12.81683517 7.79739105 12.11120941 7.8099823 11.38420105 C7.81655051 9.14528396 7.81655051 9.14528396 7 6 C4.1181743 3.60538332 4.1181743 3.60538332 1 2 C0.67 1.34 0.34 0.68 0 0 Z " fill="#6DD7EF" transform="translate(554,221)"/>
<path d="M0 0 C0.43494462 4.43643516 0.54001196 6.32863378 -2.3125 9.875 C-6.551567 13.22682042 -9.7364668 13.09931195 -15 13 C-15 12.01 -15 11.02 -15 10 C-16.32 9.67 -17.64 9.34 -19 9 C-19.04254356 7.00045254 -19.04080783 4.99958364 -19 3 C-17.07945451 1.07945451 -13.76217237 1.29546166 -11.1875 0.9375 C-9.32158203 0.67259766 -9.32158203 0.67259766 -7.41796875 0.40234375 C-4 0 -4 0 0 0 Z " fill="#0A4779" transform="translate(604,554)"/>
<path d="M0 0 C6.57096745 4.74780885 12.20590436 9.86339725 14 18 C14.93880358 26.02976677 14.48139225 33.11325983 10 40 C8.429771 41.89050234 6.87142378 43.38849619 5 45 C5.28617188 44.43152344 5.57234375 43.86304688 5.8671875 43.27734375 C6.24101563 42.52582031 6.61484375 41.77429688 7 41 C7.35320313 40.30003906 7.70640625 39.60007813 8.0703125 38.87890625 C11.55521012 31.22503852 12.41357988 23.60413324 10.33984375 15.3828125 C7.44125838 7.92930726 2.34776922 3.85105536 -4.8125 0.625 C-12.05751933 -2.0215824 -18.85259878 -1.92393686 -26 1 C-26.969375 1.226875 -27.93875 1.45375 -28.9375 1.6875 C-34.86906275 4.22959832 -39.07393297 9.31998752 -42 15 C-42.33 14.34 -42.66 13.68 -43 13 C-38.45856648 4.98570555 -33.40997771 0.64487799 -25.1875 -3.375 C-16.2651299 -5.12448433 -7.91784938 -4.69019104 0 0 Z " fill="#71D6EF" transform="translate(585,171)"/>
<path d="M0 0 C0.99 0.33 1.98 0.66 3 1 C-9.39902958 11.44435903 -23.04553122 19.85279862 -37.08178711 27.89453125 C-38.37796233 28.64151883 -39.6677585 29.3996693 -40.95141602 30.16796875 C-44.50747675 32.27581572 -46.80804383 33.5081159 -51 33 C-50.67 32.34 -50.34 31.68 -50 31 C-48.66923011 30.65657551 -47.33568021 30.32380126 -46 30 C-45.34 29.34 -44.68 28.68 -44 28 C-41.23776722 25.23776722 -38.79293383 25.42143709 -35 25 C-35 24.34 -35 23.68 -35 23 C-34.21625 22.731875 -33.4325 22.46375 -32.625 22.1875 C-29.71885077 21.15185568 -29.71885077 21.15185568 -28 18 C-25.375 17.8125 -25.375 17.8125 -23 18 C-23 17.34 -23 16.68 -23 16 C-22.195625 15.71125 -21.39125 15.4225 -20.5625 15.125 C-17.8673532 14.26737432 -17.8673532 14.26737432 -17 12 C-15.60754318 11.20595438 -14.18561731 10.46305496 -12.75 9.75 C-8.3616142 7.40532816 -5.89359463 5.01369578 -3 1 C-2.01 1.33 -1.02 1.66 0 2 C0 1.34 0 0.68 0 0 Z " fill="#0E3267" transform="translate(616,684)"/>
<path d="M0 0 C0.845625 -0.00515625 1.69125 -0.0103125 2.5625 -0.015625 C5.13478811 0.26468845 6.7803108 0.9551813 9 2.25 C8.67 2.91 8.34 3.57 8 4.25 C7.195625 4.064375 6.39125 3.87875 5.5625 3.6875 C-1.58292982 2.80999107 -7.10697733 3.58959783 -13.0859375 7.734375 C-18.68459614 12.16759857 -22.94046467 16.7637851 -26 23.25 C-26 24.57 -26 25.89 -26 27.25 C-26.44896307 29.01378348 -26.95193264 30.76445335 -27.5 32.5 C-27.7784375 33.39203125 -28.056875 34.2840625 -28.34375 35.203125 C-28.5603125 35.87859375 -28.776875 36.5540625 -29 37.25 C-29.33 37.25 -29.66 37.25 -30 37.25 C-30.67175448 28.47987212 -29.31952693 21.71733978 -24.01171875 14.57421875 C-19.57519883 9.40211004 -15.06497669 5.36690451 -9 2.25 C-8.36707031 1.88390625 -7.73414063 1.5178125 -7.08203125 1.140625 C-4.59064429 0.07489099 -2.70260149 -0.01647928 0 0 Z " fill="#79DCF2" transform="translate(479,164.75)"/>
<path d="M0 0 C0.99 0.33 1.98 0.66 3 1 C-4.17180679 7.81321645 -11.3274399 8.29417074 -20.875 8.0625 C-27.66666333 7.97839079 -34.2623603 8.00592201 -41 9 C-42.87824891 10.87824891 -42.39102397 14.03935276 -42.5625 16.5625 C-42.64628906 17.76003906 -42.73007812 18.95757813 -42.81640625 20.19140625 C-42.87699219 21.11824219 -42.93757812 22.04507813 -43 23 C-43.33 23 -43.66 23 -44 23 C-44.05383848 20.54137599 -44.09359038 18.0839245 -44.125 15.625 C-44.14175781 14.92632813 -44.15851562 14.22765625 -44.17578125 13.5078125 C-44.19344267 11.67102514 -44.10303261 9.83398037 -44 8 C-41.5672968 5.5672968 -40.26739193 5.75994314 -36.94723511 5.72354126 C-36.2608194 5.72453827 -35.57440369 5.72553528 -34.8671875 5.7265625 C-33.40624263 5.70625291 -31.9453052 5.68540177 -30.484375 5.6640625 C-28.18711084 5.64157864 -25.8901421 5.62503888 -23.59277344 5.61914062 C-10.83169185 5.96629148 -10.83169185 5.96629148 0 0 Z " fill="#03366B" transform="translate(613,577)"/>
<path d="M0 0 C-2.97 1.65 -5.94 3.3 -9 5 C-8.99476318 6.14065918 -8.98952637 7.28131836 -8.98413086 8.45654297 C-8.96606131 12.67951679 -8.95456081 16.90248718 -8.94506836 21.12548828 C-8.94003263 22.95492121 -8.93320373 24.78435009 -8.92456055 26.61376953 C-8.91246176 29.23991898 -8.90676417 31.86601532 -8.90234375 34.4921875 C-8.89718246 35.31306854 -8.89202118 36.13394958 -8.88670349 36.97970581 C-8.88612829 42.77225659 -8.88612829 42.77225659 -10 45 C-10.66 45 -11.32 45 -12 45 C-11.99476318 43.93563721 -11.98952637 42.87127441 -11.98413086 41.7746582 C-11.9659895 37.81438034 -11.95453463 33.85410614 -11.94506836 29.89379883 C-11.94004901 28.18187848 -11.93323215 26.46996239 -11.92456055 24.75805664 C-11.91238979 22.29312078 -11.90674762 19.82824175 -11.90234375 17.36328125 C-11.89718246 16.60163162 -11.89202118 15.83998199 -11.88670349 15.05525208 C-11.88630362 11.24150175 -12.07409039 7.70684229 -13 4 C-9.0516245 0.65906688 -5.11813443 -1.70604481 0 0 Z " fill="#094376" transform="translate(632,525)"/>
<path d="M0 0 C0.66 0.33 1.32 0.66 2 1 C1.37351562 1.65226563 0.74703125 2.30453125 0.1015625 2.9765625 C-0.71570313 3.85054687 -1.53296875 4.72453125 -2.375 5.625 C-3.59316406 6.91277344 -3.59316406 6.91277344 -4.8359375 8.2265625 C-9.49383761 14.19607347 -9.79322792 20.70230312 -9 28 C-7.272308 34.75370509 -4.10049836 40.23467724 1 45 C1.66 45.33 2.32 45.66 3 46 C3 46.66 3 47.32 3 48 C-0.2443953 46.59528379 -2.23517149 44.96263471 -4.5625 42.3125 C-5.14128906 41.66925781 -5.72007812 41.02601563 -6.31640625 40.36328125 C-10.2060475 34.903344 -11.5366512 29.68580044 -11.4375 23.0625 C-11.43065186 22.35883301 -11.42380371 21.65516602 -11.41674805 20.93017578 C-11.24524815 15.38950854 -10.32443576 11.41476518 -7 7 C-6.56816406 6.41605469 -6.13632812 5.83210937 -5.69140625 5.23046875 C-3.9653357 3.04342981 -2.51785349 1.25892674 0 0 Z " fill="#6ED8F0" transform="translate(624,214)"/>
<path d="M0 0 C2.98021069 2.05776452 5.02402964 4.12004151 7.125 7.0625 C8.67947561 9.22507358 10.11235385 11.11235385 12 13 C12.680625 14.175625 12.680625 14.175625 13.375 15.375 C15.02177792 18.03517972 16.76245836 19.82826841 19 22 C19.88283776 23.07695571 20.75756314 24.16060136 21.625 25.25 C22.40875 26.1575 23.1925 27.065 24 28 C24.66 28 25.32 28 26 28 C26.04125 28.556875 26.0825 29.11375 26.125 29.6875 C27.46930374 33.24030274 30.00974189 34.70958953 33 37 C32.67 37.99 32.34 38.98 32 40 C22.16844776 30.49922895 13.70411126 20.32241799 5.4375 9.4375 C4.63131226 8.38236206 4.63131226 8.38236206 3.80883789 7.3059082 C3.31375732 6.64679443 2.81867676 5.98768066 2.30859375 5.30859375 C1.86314209 4.71876709 1.41769043 4.12894043 0.95874023 3.52124023 C0 2 0 2 0 0 Z " fill="#0F346B" transform="translate(126,607)"/>
<path d="M0 0 C3.16613311 1.4526805 5.75223131 3.23403161 8.4921875 5.37890625 C9.35602051 6.04913818 10.21985352 6.71937012 11.10986328 7.40991211 C12.0223584 8.12026611 12.93485352 8.83062012 13.875 9.5625 C27.02923711 20.33293894 27.02923711 20.33293894 42 28 C42 28.66 42 29.32 42 30 C42.99 30.33 43.98 30.66 45 31 C44.01 31.495 44.01 31.495 43 32 C40.51331394 30.66313795 38.18162043 29.27457159 35.8125 27.75 C35.1006958 27.29761963 34.3888916 26.84523926 33.65551758 26.37915039 C3.48237591 6.96475183 3.48237591 6.96475183 0 0 Z " fill="#0D2F66" transform="translate(188,674)"/>
<path d="M0 0 C0.66 0.33 1.32 0.66 2 1 C1.236875 1.556875 0.47375 2.11375 -0.3125 2.6875 C-3.86645342 5.74555295 -5.72324309 7.79269486 -6.3203125 12.5546875 C-6.50687005 17.14400332 -6.32821431 20.29307688 -4.375 24.5 C-1.61806406 27.40203783 0.17410526 28.77282621 4 30 C8.46695334 29.97669416 12.6936032 29.13018559 17 28 C14.65511755 30.94851556 13.57666013 31.93035506 9.765625 32.390625 C8.60546875 32.34421875 7.4453125 32.2978125 6.25 32.25 C5.07953125 32.21390625 3.9090625 32.1778125 2.703125 32.140625 C1.81109375 32.09421875 0.9190625 32.0478125 0 32 C-0.33 31.01 -0.66 30.02 -1 29 C-1.928125 28.566875 -1.928125 28.566875 -2.875 28.125 C-6.56014985 26.17403831 -7.72653752 22.82038744 -9 19 C-9.58571245 13.02573296 -8.31832994 8.88738052 -5 4 C-2.25 1.5 -2.25 1.5 0 0 Z " fill="#73D8F1" transform="translate(563,182)"/>
<path d="M0 0 C2.51640184 1.25820092 2.61551938 2.14093969 3.6875 4.6875 C5.86395912 9.23679049 8.82768693 12.20232372 13 15 C20.61683398 17.53894466 32.13332393 17.45028783 39.4375 13.9375 C40.07558594 13.55464844 40.71367188 13.17179688 41.37109375 12.77734375 C43 12 43 12 46 13 C39.55608004 17.86333582 33.1911475 18.51890667 25.375 18.5625 C24.03369019 18.58376953 24.03369019 18.58376953 22.6652832 18.60546875 C16.8437148 18.51939067 11.7140154 17.64998591 7 14 C6.67 13.01 6.34 12.02 6 11 C5.34 11 4.68 11 4 11 C3.32591692 9.73308493 2.66099503 8.46129251 2 7.1875 C1.62875 6.47980469 1.2575 5.77210938 0.875 5.04296875 C0 3 0 3 0 0 Z " fill="#022E64" transform="translate(516,602)"/>
<path d="M0 0 C1.98 0 3.96 0 6 0 C6 0.66 6 1.32 6 2 C-1.46500721 4.29782253 -8.8896979 6.30376602 -16.5625 7.75 C-17.56120117 7.94106323 -17.56120117 7.94106323 -18.58007812 8.13598633 C-22.09499074 8.77250667 -25.42845806 9.13710334 -29 9 C-24.63011742 5.4104536 -21.33532401 4.86400889 -15.75 4.9375 C-14.85796875 4.94652344 -13.9659375 4.95554687 -13.046875 4.96484375 C-12.37140625 4.97644531 -11.6959375 4.98804688 -11 5 C-11 4.34 -11 3.68 -11 3 C-7.37 2.67 -3.74 2.34 0 2 C0 1.34 0 0.68 0 0 Z " fill="#103669" transform="translate(497,741)"/>
<path d="M0 0 C4.06248489 -0.02909769 8.12494286 -0.04683174 12.1875 -0.0625 C13.91323242 -0.07506836 13.91323242 -0.07506836 15.67382812 -0.08789062 C16.78564453 -0.09111328 17.89746094 -0.09433594 19.04296875 -0.09765625 C20.06414795 -0.10289307 21.08532715 -0.10812988 22.13745117 -0.11352539 C24.86901616 -0.00519467 27.34169374 0.38293132 30 1 C30 1.33 30 1.66 30 2 C20.02300197 3.3302664 10.04385176 3.09502917 0 3 C0 2.01 0 1.02 0 0 Z " fill="#2E79AD" transform="translate(394,65)"/>
<path d="M0 0 C0.66 0 1.32 0 2 0 C0.50872298 5.14200064 -2.65984451 8.15784224 -6.375 11.8125 C-6.99407227 12.42689941 -7.61314453 13.04129883 -8.25097656 13.67431641 C-22.00855978 27 -22.00855978 27 -28 27 C-28 26.34 -28 25.68 -28 25 C-26.43745395 23.93613886 -24.82140432 22.95063524 -23.1875 22 C-14.45255559 16.58568523 -6.84162599 9.9877233 -1.12109375 1.3984375 C-0.75113281 0.93695313 -0.38117187 0.47546875 0 0 Z " fill="#073B70" transform="translate(663,496)"/>
<path d="M0 0 C0.33 0 0.66 0 1 0 C1 14.52 1 29.04 1 44 C0.01 44 -0.98 44 -2 44 C-2 39.05 -2 34.1 -2 29 C-1.67 29 -1.34 29 -1 29 C-0.67 19.43 -0.34 9.86 0 0 Z " fill="#39A1C8" transform="translate(674,397)"/>
<path d="M0 0 C-1.26323563 3.78970688 -2.49600839 4.17254891 -5.875 6.1875 C-11.07441295 9.35737709 -15.8857924 12.85288477 -20.6875 16.59375 C-21.450625 17.0578125 -22.21375 17.521875 -23 18 C-23.99 17.67 -24.98 17.34 -26 17 C-23.29851454 14.15397154 -20.59044759 11.90522033 -17.3046875 9.765625 C-16.42425781 9.19199219 -15.54382813 8.61835937 -14.63671875 8.02734375 C-13.72535156 7.44082031 -12.81398437 6.85429688 -11.875 6.25 C-10.95589844 5.64800781 -10.03679687 5.04601562 -9.08984375 4.42578125 C-2.25547406 0 -2.25547406 0 0 0 Z " fill="#1B69A2" transform="translate(234,113)"/>
<path d="M0 0 C0.66 0.33 1.32 0.66 2 1 C-2.97092721 6.31773608 -8.18176847 11.11922599 -13.9375 15.5625 C-14.5049292 16.00384277 -15.0723584 16.44518555 -15.65698242 16.89990234 C-19.74425857 20 -19.74425857 20 -22 20 C-22 19.34 -22 18.68 -22 18 C-21.34 18 -20.68 18 -20 18 C-20 17.34 -20 16.68 -20 16 C-19.01 16 -18.02 16 -17 16 C-16.773125 15.21625 -16.54625 14.4325 -16.3125 13.625 C-14.66171907 10.32343815 -13.38223927 10.18378375 -10 9 C-9.34 8.01 -8.68 7.02 -8 6 C-6.34467377 4.98133771 -4.67739862 3.98189187 -3 3 C-1.24850835 1.41754725 -1.24850835 1.41754725 0 0 Z " fill="#0D3469" transform="translate(642,663)"/>
<path d="M0 0 C0.99 0.33 1.98 0.66 3 1 C-1.55797372 8.07826508 -6.34332229 14.94013255 -11.375 21.6875 C-11.89868164 22.39455078 -12.42236328 23.10160156 -12.96191406 23.83007812 C-13.4565918 24.48814453 -13.95126953 25.14621094 -14.4609375 25.82421875 C-15.12295166 26.70726685 -15.12295166 26.70726685 -15.79833984 27.6081543 C-17 29 -17 29 -19 30 C-19 29.01 -19 28.02 -19 27 C-18.34 27 -17.68 27 -17 27 C-15.58622659 24.36095629 -14.62759865 21.92879371 -14 19 C-13.01 19 -12.02 19 -11 19 C-11 18.01 -11 17.02 -11 16 C-9.68799596 14.64567325 -8.35368596 13.31266518 -7 12 C-6.67 11.01 -6.34 10.02 -6 9 C-5.360625 8.38125 -4.72125 7.7625 -4.0625 7.125 C-1.85208757 4.84760538 -0.99430634 2.98291902 0 0 Z " fill="#0C3067" transform="translate(701,592)"/>
<path d="M0 0 C1.32 0 2.64 0 4 0 C4 0.66 4 1.32 4 2 C-21.64075067 13.45308311 -21.64075067 13.45308311 -26 12 C-20.61255621 8.94226163 -14.98551772 7.50170462 -9 6 C-9 5.34 -9 4.68 -9 4 C-8.43410156 3.79503906 -7.86820313 3.59007812 -7.28515625 3.37890625 C-6.55167969 3.10949219 -5.81820312 2.84007812 -5.0625 2.5625 C-4.33160156 2.29566406 -3.60070312 2.02882813 -2.84765625 1.75390625 C-1.01694322 1.14613052 -1.01694322 1.14613052 0 0 Z " fill="#0C3064" transform="translate(551,722)"/>
<path d="M0 0 C1.134375 0.495 2.26875 0.99 3.4375 1.5 C9.01237953 3.42083189 14.41797716 3.19419683 20.23413086 2.9765625 C22.15520232 2.9177255 24.07862677 2.95201782 26 3 C26.66 3.66 27.32 4.32 28 5 C24.08611124 6.30462959 20.33127024 6.26328854 16.25 6.3125 C15.46367188 6.34150391 14.67734375 6.37050781 13.8671875 6.40039062 C8.07288086 6.46295374 4.7978966 5.25205023 0 2 C0 1.34 0 0.68 0 0 Z " fill="#319FC7" transform="translate(525,613)"/>
<path d="M0 0 C0.33 0.66 0.66 1.32 1 2 C-0.03447266 2.56267578 -0.03447266 2.56267578 -1.08984375 3.13671875 C-2.02957031 3.64847656 -2.96929687 4.16023438 -3.9375 4.6875 C-5.43990234 5.50541016 -5.43990234 5.50541016 -6.97265625 6.33984375 C-9.61826925 7.79066378 -12.24797825 9.26593206 -14.875 10.75 C-17.84792458 12.40992737 -20.78194721 13.8581103 -24 15 C-24.33 14.34 -24.66 13.68 -25 13 C-21.20847777 11.02055654 -17.41675784 9.04149209 -13.625 7.0625 C-12.54476562 6.49853516 -11.46453125 5.93457031 -10.3515625 5.35351562 C-9.3203125 4.81533203 -8.2890625 4.27714844 -7.2265625 3.72265625 C-6.27346191 3.22515869 -5.32036133 2.72766113 -4.33837891 2.21508789 C-2.89756974 1.46640265 -1.45229767 0.72614884 0 0 Z " fill="#1867A2" transform="translate(261,98)"/>
<path d="M0 0 C15.74487472 0.96355353 15.74487472 0.96355353 23 2 C23 2.66 23 3.32 23 4 C24.65 4 26.3 4 28 4 C28 4.33 28 4.66 28 5 C23.05 4.67 18.1 4.34 13 4 C13 3.34 13 2.68 13 2 C12.15695312 2.24556641 12.15695312 2.24556641 11.296875 2.49609375 C8.86940944 3.02864997 6.73110319 3.09898681 4.25 3.0625 C3.45078125 3.05347656 2.6515625 3.04445313 1.828125 3.03515625 C1.22484375 3.02355469 0.6215625 3.01195313 0 3 C0 2.01 0 1.02 0 0 Z " fill="#1664A1" transform="translate(432,66)"/>
<path d="M0 0 C0 0.99 0 1.98 0 3 C-2.74277547 4.22766151 -5.49212499 5.432163 -8.25 6.625 C-9.02730469 6.975625 -9.80460937 7.32625 -10.60546875 7.6875 C-11.73662109 8.17089844 -11.73662109 8.17089844 -12.890625 8.6640625 C-13.58188477 8.96779785 -14.27314453 9.2715332 -14.98535156 9.58447266 C-17 10 -17 10 -21 8 C-14.07 5.36 -7.14 2.72 0 0 Z " fill="#2270A7" transform="translate(295,84)"/>
<path d="M0 0 C0.33 0.99 0.66 1.98 1 3 C-3.95 7.95 -8.9 12.9 -14 18 C-14.99 17.67 -15.98 17.34 -17 17 C-11.39 11.39 -5.78 5.78 0 0 Z " fill="#1D659D" transform="translate(171,159)"/>
<path d="M0 0 C1.07878418 0.01047363 2.15756836 0.02094727 3.26904297 0.03173828 C5.01894531 0.04140625 5.01894531 0.04140625 6.80419922 0.05126953 C8.02751953 0.06802734 9.25083984 0.08478516 10.51123047 0.10205078 C11.74228516 0.11107422 12.97333984 0.12009766 14.24169922 0.12939453 C17.29006862 0.1530253 20.33805429 0.18597024 23.38623047 0.22705078 C23.38623047 0.55705078 23.38623047 0.88705078 23.38623047 1.22705078 C22.48130859 1.31792969 22.48130859 1.31792969 21.55810547 1.41064453 C20.35927734 1.53632812 20.35927734 1.53632812 19.13623047 1.66455078 C18.34732422 1.74576172 17.55841797 1.82697266 16.74560547 1.91064453 C14.42992513 2.17090782 14.42992513 2.17090782 12.39794922 2.75439453 C7.00235139 4.0220981 0.71313577 3.64755886 -4.61376953 2.22705078 C-2.61376953 0.22705078 -2.61376953 0.22705078 0 0 Z " fill="#39ACD3" transform="translate(531.61376953125,568.77294921875)"/>
<path d="M0 0 C1.65 0 3.3 0 5 0 C5 0.66 5 1.32 5 2 C9.455 2.99 9.455 2.99 14 4 C14 4.66 14 5.32 14 6 C16.97 6.99 19.94 7.98 23 9 C18.9114058 10.36286473 16.40668979 8.84152196 12.625 7.25 C11.635 6.85167969 11.635 6.85167969 10.625 6.4453125 C6.88508963 4.91060824 3.36997322 3.26399745 0 1 C0 0.67 0 0.34 0 0 Z " fill="#103569" transform="translate(264,722)"/>
<path d="M0 0 C3.53983302 3.25123918 5.12833841 7.00834123 7.125 11.3125 C7.48464844 12.05951172 7.84429688 12.80652344 8.21484375 13.57617188 C10.15779272 17.72040198 11.51659938 21.39304561 12 26 C8.9951781 22.35263756 6.97935323 18.3259982 4.875 14.125 C4.33552734 13.08279297 4.33552734 13.08279297 3.78515625 12.01953125 C1.76744378 8.00677723 0.46869796 4.53074692 0 0 Z " fill="#16487F" transform="translate(719,254)"/>
<path d="M0 0 C2.15387662 2.61542162 4.10319566 5.16855292 5.875 8.0625 C8.24170986 11.33412834 10.58814507 12.89481292 14 15 C15.75 16.625 15.75 16.625 17 18 C17.66 18.66 18.32 19.32 19 20 C11.98989308 19.06288501 7.6687864 13.98438771 3.0625 8.9375 C0.87154294 5.817046 0.26905558 3.76677815 0 0 Z " fill="#73DAF2" transform="translate(476,246)"/>
<path d="M0 0 C2.04119788 1.61594832 4.04072937 3.2856382 6 5 C6 5.66 6 6.32 6 7 C6.66 7 7.32 7 8 7 C10.2647694 11.52953881 10.31552523 15.03047769 10 20 C9 22.5 9 22.5 8 24 C6.69877571 21.39755142 7.14156087 19.76481542 7.375 16.875 C7.46224475 12.12639298 6.72883907 9.98818357 3.5 6.5 C2.8503125 5.8915625 2.200625 5.283125 1.53125 4.65625 C0 3 0 3 0 0 Z " fill="#6CD1ED" transform="translate(576,181)"/>
<path d="M0 0 C0.33 0.66 0.66 1.32 1 2 C-1.18652739 2.33965474 -3.37428025 2.67142477 -5.5625 3 C-7.38974609 3.2784375 -7.38974609 3.2784375 -9.25390625 3.5625 C-12.87627848 3.98555077 -16.35712046 4.07501425 -20 4 C-18.4097328 2.12880232 -17.42888457 1.11081633 -15.01953125 0.48828125 C-14.29121094 0.43027344 -13.56289063 0.37226562 -12.8125 0.3125 C-12.02617187 0.24804688 -11.23984375 0.18359375 -10.4296875 0.1171875 C-6.94426692 -0.0509196 -3.48904564 -0.06343719 0 0 Z " fill="#2572A9" transform="translate(387,66)"/>
<path d="M0 0 C3.48584036 1.48050298 5.59898182 3.4481028 8.1875 6.1875 C12.48071632 10.59482174 17.04864937 14.35964528 22 18 C21.34 18.66 20.68 19.32 20 20 C17.59850306 17.79776179 15.20488935 15.58712559 12.8125 13.375 C12.13896484 12.75753906 11.46542969 12.14007812 10.77148438 11.50390625 C6.85427236 7.8733195 3.3175139 4.18715347 0 0 Z " fill="#0B3067" transform="translate(166,654)"/>
<path d="M0 0 C0 3 0 3 -1.28515625 4.62573242 C-2.16494141 5.4819519 -2.16494141 5.4819519 -3.0625 6.35546875 C-3.69414063 6.97744141 -4.32578125 7.59941406 -4.9765625 8.24023438 C-5.64429688 8.88283203 -6.31203125 9.52542969 -7 10.1875 C-8.00160156 11.16879883 -8.00160156 11.16879883 -9.0234375 12.16992188 C-10.67578441 13.78686135 -12.33471601 15.39640491 -14 17 C-14.99 16.67 -15.98 16.34 -17 16 C-17 15.34 -17 14.68 -17 14 C-16.071875 13.608125 -15.14375 13.21625 -14.1875 12.8125 C-10.69548252 10.826843 -9.92081154 9.405075 -8 6 C-6.0625 4.9375 -6.0625 4.9375 -4 4 C-2.62913085 2.70529025 -1.28659163 1.37849103 0 0 Z " fill="#0A3067" transform="translate(661,645)"/>
<path d="M0 0 C2.97 0.33 5.94 0.66 9 1 C9 1.66 9 2.32 9 3 C9.7425 2.773125 10.485 2.54625 11.25 2.3125 C14 2 14 2 16.171875 3.48046875 C16.77515625 3.98191406 17.3784375 4.48335937 18 5 C15.77027727 4.88534579 13.54121247 4.75785234 11.3125 4.625 C10.07113281 4.55539062 8.82976562 4.48578125 7.55078125 4.4140625 C4.30682228 4.03577906 1.93432815 3.38020024 -1 2 C-0.67 1.34 -0.34 0.68 0 0 Z " fill="#153D6F" transform="translate(332,744)"/>
<path d="M0 0 C0.33 0 0.66 0 1 0 C1.6188704 6.47235289 -0.32786915 10.37912657 -3.5 15.9375 C-3.92925781 16.71673828 -4.35851562 17.49597656 -4.80078125 18.29882812 C-5.85409931 20.20650417 -6.92527369 22.1043022 -8 24 C-9 21 -9 21 -7.56640625 17.78515625 C-6.90813666 16.53909846 -6.23973263 15.29835389 -5.5625 14.0625 C-2.72662139 8.87299332 -2.72662139 8.87299332 -2 3 C-1.34 3 -0.68 3 0 3 C0 2.01 0 1.02 0 0 Z " fill="#144173" transform="translate(725,547)"/>
<path d="M0 0 C0.66 0.66 1.32 1.32 2 2 C-2.54955623 6.71805831 -7.53065077 10.43856329 -13 14 C-13 13.01 -13 12.02 -13 11 C-10.8763036 8.98423872 -8.77281034 7.14350625 -6.5 5.3125 C-5.87996094 4.80138672 -5.25992188 4.29027344 -4.62109375 3.76367188 C-3.08722544 2.50118027 -1.54443168 1.24954706 0 0 Z " fill="#19659F" transform="translate(193,140)"/>
<path d="M0 0 C-0.99 0.38671875 -1.98 0.7734375 -3 1.171875 C-9.81994134 3.85566819 -16.51707243 6.56007925 -23 10 C-21.81944765 6.45834294 -20.51106462 5.77243695 -17.30859375 4.0546875 C-4.875803 -1.62526767 -4.875803 -1.62526767 0 0 Z " fill="#6AD6EF" transform="translate(478,308)"/>
<path d="M0 0 C0.78503906 0.00644531 1.57007813 0.01289062 2.37890625 0.01953125 C4.4375 0.1875 4.4375 0.1875 6.4375 1.1875 C6.4375 1.8475 6.4375 2.5075 6.4375 3.1875 C8.7475 3.1875 11.0575 3.1875 13.4375 3.1875 C13.4375 3.5175 13.4375 3.8475 13.4375 4.1875 C6.18752578 4.47057925 -0.47211228 3.69724035 -7.5625 2.1875 C-4.404724 0.082316 -3.60852866 -0.06539344 0 0 Z " fill="#0D3467" transform="translate(363.5625,748.8125)"/>
<path d="M0 0 C0 0.33 0 0.66 0 1 C-7.41143564 2.42625566 -14.44862068 3.30071865 -22 3 C-22 2.67 -22 2.34 -22 2 C-18.535 1.505 -18.535 1.505 -15 1 C-15 0.67 -15 0.34 -15 0 C-9.62374766 -0.84888195 -5.34629602 -1.0024305 0 0 Z " fill="#06285E" transform="translate(466,750)"/>
<path d="M0 0 C1.63936904 4.06187616 0.31657878 7.66491764 -0.8125 11.6875 C-0.99103516 12.37650391 -1.16957031 13.06550781 -1.35351562 13.77539062 C-1.83337341 15.53717894 -2.41008605 17.27194818 -3 19 C-3.66 19.33 -4.32 19.66 -5 20 C-5 17.36 -5 14.72 -5 12 C-4.34 12 -3.68 12 -3 12 C-2.86722656 11.30132812 -2.73445312 10.60265625 -2.59765625 9.8828125 C-2.42105469 8.97273438 -2.24445312 8.06265625 -2.0625 7.125 C-1.88847656 6.22007812 -1.71445312 5.31515625 -1.53515625 4.3828125 C-1 2 -1 2 0 0 Z " fill="#0F3970" transform="translate(746,492)"/>
<path d="M0 0 C5.94 0.33 11.88 0.66 18 1 C17.67 1.99 17.34 2.98 17 4 C14.72844502 3.91297874 12.45769257 3.80480478 10.1875 3.6875 C8.92292969 3.62949219 7.65835937 3.57148438 6.35546875 3.51171875 C3 3 3 3 0 0 Z " fill="#64C6E3" transform="translate(496,266)"/>
<path d="M0 0 C0.99 0.99 1.98 1.98 3 3 C2.02665823 6.34180675 1.02253973 9.67293044 0 13 C-0.309375 14.010625 -0.61875 15.02125 -0.9375 16.0625 C-2 18 -2 18 -4.125 18.8125 C-4.74375 18.874375 -5.3625 18.93625 -6 19 C-6 18.34 -6 17.68 -6 17 C-5.34 17 -4.68 17 -4 17 C-3.690625 16.05125 -3.38125 15.1025 -3.0625 14.125 C-2 11 -2 11 -1 9 C-0.77532169 7.46331135 -0.59203195 5.92031946 -0.4375 4.375 C-0.35371094 3.55773437 -0.26992188 2.74046875 -0.18359375 1.8984375 C-0.12300781 1.27195313 -0.06242187 0.64546875 0 0 Z " fill="#74D7EF" transform="translate(492,192)"/>
<path d="M0 0 C0.66 0 1.32 0 2 0 C3.15312303 1.39053071 4.30183326 2.78500191 5.42578125 4.19921875 C8.29156319 7.47744574 11.67003429 10.20712553 15 13 C14.01 13.33 13.02 13.66 12 14 C12 13.34 12 12.68 12 12 C11.42765625 11.7525 10.8553125 11.505 10.265625 11.25 C7.64989389 9.80683801 5.85226544 8.11783778 3.75 6 C3.04359375 5.29875 2.3371875 4.5975 1.609375 3.875 C0 2 0 2 0 0 Z " fill="#DCE5EB" transform="translate(158,648)"/>
<path d="M0 0 C0.33 0.66 0.66 1.32 1 2 C-0.19614677 4.43659526 -1.43812986 6.73002411 -2.8125 9.0625 C-3.36647461 10.03799805 -3.36647461 10.03799805 -3.93164062 11.03320312 C-6.73305861 15.8665293 -6.73305861 15.8665293 -9 17 C-8.57781184 15.3501725 -8.13675575 13.70516335 -7.6875 12.0625 C-7.44386719 11.14597656 -7.20023438 10.22945312 -6.94921875 9.28515625 C-6.63597656 8.53105469 -6.32273437 7.77695312 -6 7 C-5.01 6.67 -4.02 6.34 -3 6 C-1.84478498 3.52869082 -1.84478498 3.52869082 -1 1 C-0.67 0.67 -0.34 0.34 0 0 Z " fill="#0B3369" transform="translate(713,574)"/>
<path d="M0 0 C0 3 0 3 -2.08203125 5.15625 C-3.43361328 6.31640625 -3.43361328 6.31640625 -4.8125 7.5 C-9.0203533 11.12830914 -9.0203533 11.12830914 -13 15 C-13.66 14.67 -14.32 14.34 -15 14 C-10.55487173 8.41509524 -5.75545909 4.20788009 0 0 Z " fill="#67D2ED" transform="translate(453,317)"/>
<path d="M0 0 C4.62 0.66 9.24 1.32 14 2 C14.33 2.99 14.66 3.98 15 5 C9.5610835 5.21755666 5.12919186 5.10428384 0 3 C0 2.01 0 1.02 0 0 Z " fill="#206CA4" transform="translate(461,69)"/>
<path d="M0 0 C0.66 0.33 1.32 0.66 2 1 C-1.96 4.96 -5.92 8.92 -10 13 C-10.66 12.67 -11.32 12.34 -12 12 C-10.37860535 10.18415766 -8.75313264 8.3722838 -7.125 6.5625 C-6.66480469 6.04623047 -6.20460938 5.52996094 -5.73046875 4.99804688 C-2.2265625 1.11328125 -2.2265625 1.11328125 0 0 Z " fill="#61CDEA" transform="translate(625,264)"/>
<path d="M0 0 C1.32830615 3.98491845 0.23204404 5.40048548 -1.4375 9.1875 C-1.91058594 10.27417969 -2.38367188 11.36085938 -2.87109375 12.48046875 C-3.42990234 13.72763672 -3.42990234 13.72763672 -4 15 C-5.1796875 13.359375 -5.1796875 13.359375 -6 11 C-4.8828125 8.203125 -4.8828125 8.203125 -3.125 5.25 C-2.55007813 4.26515625 -1.97515625 3.2803125 -1.3828125 2.265625 C-0.92648437 1.51796875 -0.47015625 0.7703125 0 0 Z " fill="#09346A" transform="translate(739,516)"/>
<path d="M0 0 C2 2 2 2 2.25 5.25 C2.00879145 8.8681282 1.31162801 11.63895322 0 15 C-0.66 15 -1.32 15 -2 15 C-1.34 10.05 -0.68 5.1 0 0 Z " fill="#1B5289" transform="translate(67,349)"/>
<path d="M0 0 C2.52469299 1.2623465 2.65658776 2.19870477 3.75 4.75 C5.79311485 9.05292371 8.17443931 11.21777404 12 14 C11.34 14.66 10.68 15.32 10 16 C8 14.625 8 14.625 6 13 C6 12.34 6 11.68 6 11 C5.34 11 4.68 11 4 11 C3.32591692 9.73308493 2.66099503 8.46129251 2 7.1875 C1.62875 6.47980469 1.2575 5.77210938 0.875 5.04296875 C0 3 0 3 0 0 Z " fill="#073B6F" transform="translate(516,602)"/>
<path d="M0 0 C0.99 0.33 1.98 0.66 3 1 C2.38511719 1.63615234 2.38511719 1.63615234 1.7578125 2.28515625 C-2.03077668 6.40909902 -3.87908934 9.50753777 -5 15 C-5.66 14.01 -6.32 13.02 -7 12 C-2.96127563 3.55353075 -2.96127563 3.55353075 0 0 Z " fill="#3CB5DB" transform="translate(524,572)"/>
<path d="M0 0 C0.66 1.32 1.32 2.64 2 4 C1.1015625 6.140625 1.1015625 6.140625 -0.375 8.25 C-0.85710937 8.95640625 -1.33921875 9.6628125 -1.8359375 10.390625 C-2.22007813 10.92171875 -2.60421875 11.4528125 -3 12 C-3.66 11.01 -4.32 10.02 -5 9 C-3.35 6.03 -1.7 3.06 0 0 Z " fill="#1C6097" transform="translate(111,233)"/>
<path d="M0 0 C0.66 0 1.32 0 2 0 C2.33 0.99 2.66 1.98 3 3 C3.66 3.66 4.32 4.32 5 5 C6.05289278 6.15654544 7.09367083 7.3241851 8.125 8.5 C8.66382813 9.1084375 9.20265625 9.716875 9.7578125 10.34375 C11 12 11 12 11 14 C7.16341134 12.50610707 5.53814574 10.36376981 3.25 7 C2.63640625 6.113125 2.0228125 5.22625 1.390625 4.3125 C0 2 0 2 0 0 Z " fill="#71D6EE" transform="translate(543,207)"/>
<path d="M0 0 C0.66 0.66 1.32 1.32 2 2 C-3.08086796 2.84681133 -7.84828377 3.09038099 -13 3 C-12 1 -12 1 -10.4375 0.375 C-6.87886814 -0.17248182 -3.6061508 -0.17449117 0 0 Z " fill="#0E3365" transform="translate(440,752)"/>
<path d="M0 0 C3.55671873 1.31730323 5.37444506 3.46882497 7.6953125 6.40234375 C9.63498659 8.7775734 11.80164858 10.86445862 14 13 C10.05241713 11.66803585 7.65244515 10.03695238 4.75 7.0625 C4.06421875 6.37285156 3.3784375 5.68320312 2.671875 4.97265625 C1 3 1 3 0 0 Z " fill="#083D73" transform="translate(437,501)"/>
<path d="M0 0 C0.4125 0.38671875 0.825 0.7734375 1.25 1.171875 C5.5586764 5.05737783 9.7225368 7.59273608 15 10 C13.2890625 10.6640625 13.2890625 10.6640625 11 11 C8.7109375 9.9609375 8.7109375 9.9609375 6.375 8.375 C5.59898437 7.86710937 4.82296875 7.35921875 4.0234375 6.8359375 C1.69952888 4.72737177 0.94000924 2.9615345 0 0 Z " fill="#0A447B" transform="translate(160,435)"/>
<path d="M0 0 C1.58294782 -0.05437607 3.16644256 -0.09296271 4.75 -0.125 C5.63171875 -0.14820313 6.5134375 -0.17140625 7.421875 -0.1953125 C10.1135858 0.00860498 11.69904974 0.63448279 14 2 C13.67 2.66 13.34 3.32 13 4 C8.71 3.34 4.42 2.68 0 2 C0 1.34 0 0.68 0 0 Z " fill="#6FD0EA" transform="translate(474,165)"/>
<path d="M0 0 C0.66 0.33 1.32 0.66 2 1 C2.42955722 13.29010926 2.42955722 13.29010926 -1.625 17.8125 C-2.07875 18.204375 -2.5325 18.59625 -3 19 C-3.66 18.67 -4.32 18.34 -5 18 C-4.360625 17.236875 -3.72125 16.47375 -3.0625 15.6875 C-0.19948741 11.95690784 0.12182321 9.38038742 0.0625 4.8125 C0.05347656 3.91144531 0.04445313 3.01039063 0.03515625 2.08203125 C0.02355469 1.39496094 0.01195312 0.70789063 0 0 Z " fill="#71DEF5" transform="translate(654,231)"/>
<path d="M0 0 C0.33 0 0.66 0 1 0 C1.02895976 3.12498063 1.04678483 6.2499269 1.0625 9.375 C1.07087891 10.26445313 1.07925781 11.15390625 1.08789062 12.0703125 C1.09111328 12.92109375 1.09433594 13.771875 1.09765625 14.6484375 C1.10289307 15.43395996 1.10812988 16.21948242 1.11352539 17.02880859 C1 19 1 19 0 21 C-0.66 21 -1.32 21 -2 21 C-1.01 10.605 -1.01 10.605 0 0 Z " fill="#033469" transform="translate(622,549)"/>
<path d="M0 0 C0.99 0 1.98 0 3 0 C1.47291037 3.43595166 -0.59927045 6.11912454 -3 9 C-3.99 8.67 -4.98 8.34 -6 8 C-5.07456291 6.65826597 -4.13422595 5.32679841 -3.1875 4 C-2.66542969 3.2575 -2.14335937 2.515 -1.60546875 1.75 C-0.81076172 0.88375 -0.81076172 0.88375 0 0 Z " fill="#1B649C" transform="translate(147,184)"/>
<path d="M0 0 C0 0.66 0 1.32 0 2 C-8.42857143 4.28571429 -8.42857143 4.28571429 -13 4 C-8.66957446 0.44286474 -5.53947792 -0.15387439 0 0 Z " fill="#082C61" transform="translate(481,746)"/>
<path d="M0 0 C0.99 0.33 1.98 0.66 3 1 C-3.14285714 6.57142857 -3.14285714 6.57142857 -8 7 C-8.33 6.34 -8.66 5.68 -9 5 C-8.43410156 4.72285156 -7.86820313 4.44570313 -7.28515625 4.16015625 C-6.55167969 3.79792969 -5.81820312 3.43570313 -5.0625 3.0625 C-3.96615234 2.52302734 -3.96615234 2.52302734 -2.84765625 1.97265625 C-1.03750973 1.13628173 -1.03750973 1.13628173 0 0 Z " fill="#083E72" transform="translate(613,577)"/>
<path d="M0 0 C4.02992782 0.55312735 8.02022924 1.1558062 12 2 C11.01 2.495 11.01 2.495 10 3 C9.67 3.66 9.34 4.32 9 5 C5.64566891 4.05066101 2.30753495 3.10251165 -1 2 C-0.67 1.34 -0.34 0.68 0 0 Z " fill="#226EA4" transform="translate(486,74)"/>
<path d="M0 0 C0 0.99 0 1.98 0 3 C-2.64 3.33 -5.28 3.66 -8 4 C-8.66 3.01 -9.32 2.02 -10 1 C-6.59437148 0.22157062 -3.49234244 -0.09978121 0 0 Z " fill="#347DB0" transform="translate(342,72)"/>
<path d="M0 0 C1.43836751 0.11458693 2.87570966 0.24209116 4.3125 0.375 C5.51326172 0.47941406 5.51326172 0.47941406 6.73828125 0.5859375 C9 1 9 1 12 3 C5.64772727 4.22159091 5.64772727 4.22159091 2.625 3.1875 C1 2 1 2 0 0 Z " fill="#194475" transform="translate(347,747)"/>
<path d="M0 0 C2.64 0 5.28 0 8 0 C7.67 0.99 7.34 1.98 7 3 C4.36 3 1.72 3 -1 3 C-0.67 2.01 -0.34 1.02 0 0 Z " fill="#2E95C0" transform="translate(539,601)"/>
<path d="M0 0 C0.66 0.33 1.32 0.66 2 1 C2 2.98 2 4.96 2 7 C2.99 7.33 3.98 7.66 5 8 C5 8.99 5 9.98 5 11 C3.125 10.6875 3.125 10.6875 1 10 C-1.56687367 6.1496895 -0.83288724 4.41430237 0 0 Z " fill="#34A4CC" transform="translate(584,556)"/>
<path d="M0 0 C3.57040303 0.65902299 6.17732255 2.16229158 9.25 4.0625 C10.14203125 4.61035156 11.0340625 5.15820312 11.953125 5.72265625 C12.96632813 6.35494141 12.96632813 6.35494141 14 7 C12.328125 7.7109375 12.328125 7.7109375 10 8 C7.421875 6.6015625 7.421875 6.6015625 4.75 4.625 C3.85796875 3.97789062 2.9659375 3.33078125 2.046875 2.6640625 C1.37140625 2.11492188 0.6959375 1.56578125 0 1 C0 0.67 0 0.34 0 0 Z " fill="#063A70" transform="translate(451,515)"/>
<path d="M0 0 C0.66 0.33 1.32 0.66 2 1 C-0.09663099 4.97256398 -2.30075595 7.43898489 -6 10 C-6.66 10 -7.32 10 -8 10 C-8 9.34 -8 8.68 -8 8 C-6.52295788 6.74772516 -5.04172601 5.49833478 -3.5078125 4.31640625 C-1.73237056 2.88235909 -1.73237056 2.88235909 0 0 Z " fill="#09437A" transform="translate(384,433)"/>
<path d="M0 0 C0.99 0 1.98 0 3 0 C1.44499019 3.81684226 -1.03595495 6.19195732 -4 9 C-4 4.94519369 -2.45129908 3.15167025 0 0 Z " fill="#195F98" transform="translate(130,205)"/>
<path d="M0 0 C3.96 0.33 7.92 0.66 12 1 C12 1.99 12 2.98 12 4 C10.56138706 3.91253716 9.12402492 3.80434652 7.6875 3.6875 C6.88699219 3.62949219 6.08648437 3.57148438 5.26171875 3.51171875 C3 3 3 3 0 0 Z " fill="#14568D" transform="translate(174,350)"/>
<path d="M0 0 C0.66 0.66 1.32 1.32 2 2 C-0.97 4.31 -3.94 6.62 -7 9 C-7.66 8.34 -8.32 7.68 -9 7 C-6.03 4.69 -3.06 2.38 0 0 Z " fill="#17639E" transform="translate(205,131)"/>
<path d="M0 0 C0 0.66 0 1.32 0 2 C-4.88077452 4.44038726 -7.52667068 5.46845421 -13 4 C-9.06512611 1.79647062 -4.5498921 0 0 0 Z " fill="#E8ECF1" transform="translate(506,742)"/>
<path d="M0 0 C0.66 0 1.32 0 2 0 C0.84414715 3.91211733 -0.35534962 6.8745041 -3 10 C-3.99 9.67 -4.98 9.34 -6 9 C-5.071875 7.88625 -5.071875 7.88625 -4.125 6.75 C-2.39562719 4.51198812 -1.13893339 2.56260013 0 0 Z " fill="#0A4477" transform="translate(566,604)"/>
<path d="M0 0 C1.26724763 3.80174289 0.4750819 5.3511132 -1 9 C-1.66 9.66 -2.32 10.32 -3 11 C-4.0326802 8.21176345 -4.04509293 7.1322726 -3.0625 4.25 C-2.711875 3.5075 -2.36125 2.765 -2 2 C-1.34 2 -0.68 2 0 2 C0 1.34 0 0.68 0 0 Z " fill="#165990" transform="translate(82,298)"/>
<path d="M0 0 C1.70840281 1.63412443 2.93453047 2.86906094 4 5 C4.039992 6.99960012 4.04346799 9.00047242 4 11 C0.85041169 7.57653445 0.43820891 4.55737263 0 0 Z " fill="#64C1E0" transform="translate(502,178)"/>
<path d="M0 0 C-1.26538369 0.84158536 -2.53753779 1.67299748 -3.8125 2.5 C-4.87404297 3.19609375 -4.87404297 3.19609375 -5.95703125 3.90625 C-8 5 -8 5 -11 5 C-11 4.34 -11 3.68 -11 3 C-9.73581754 2.30034557 -8.46334598 1.61565237 -7.1875 0.9375 C-6.47980469 0.55464844 -5.77210938 0.17179688 -5.04296875 -0.22265625 C-3 -1 -3 -1 0 0 Z " fill="#3BB0D7" transform="translate(640,519)"/>
<path d="M0 0 C2.97 0.99 5.94 1.98 9 3 C5 5 5 5 1 5 C0.67 3.35 0.34 1.7 0 0 Z " fill="#1A659D" transform="translate(545,93)"/>
<path d="M0 0 C-2.51699845 2.51699845 -4.57554146 3.10964078 -8 4 C-10.375 3.625 -10.375 3.625 -12 3 C-7.89542386 0.01485372 -5.02254631 -0.2954439 0 0 Z " fill="#08295F" transform="translate(525,735)"/>
<path d="M0 0 C2.97 0.99 5.94 1.98 9 3 C9 3.66 9 4.32 9 5 C8.21625 4.814375 7.4325 4.62875 6.625 4.4375 C4.02910225 3.74037734 4.02910225 3.74037734 2 5 C1.01 3.68 0.02 2.36 -1 1 C-0.67 0.67 -0.34 0.34 0 0 Z " fill="#14609B" transform="translate(522,84)"/>
<path d="M0 0 C1.98 0 3.96 0 6 0 C6 0.33 6 0.66 6 1 C4.35 1 2.7 1 1 1 C1.33 1.99 1.66 2.98 2 4 C0.0625 6.6875 0.0625 6.6875 -2 9 C-1.125 2.25 -1.125 2.25 0 0 Z " fill="#06396F" transform="translate(674,471)"/>
<path d="M0 0 C0.66 0.99 1.32 1.98 2 3 C-0.31 3.66 -2.62 4.32 -5 5 C-5.66 4.34 -6.32 3.68 -7 3 C-4.69 2.01 -2.38 1.02 0 0 Z " fill="#E9EDF0" transform="translate(551,725)"/>
<path d="M0 0 C-2.99480917 0.8723412 -5.63575911 1.10829766 -8.75 1.0625 C-9.54921875 1.05347656 -10.3484375 1.04445313 -11.171875 1.03515625 C-11.77515625 1.02355469 -12.3784375 1.01195312 -13 1 C-13 0.34 -13 -0.32 -13 -1 C-11.58566794 -1.2236337 -10.16832382 -1.42826476 -8.75 -1.625 C-7.56664062 -1.79902344 -7.56664062 -1.79902344 -6.359375 -1.9765625 C-3.67847541 -2.00319395 -2.27305911 -1.36592084 0 0 Z " fill="#3EB9DE" transform="translate(559,571)"/>
<path d="M0 0 C0.33 0.66 0.66 1.32 1 2 C0.00390625 4.3828125 0.00390625 4.3828125 -1.4375 7.125 C-1.91058594 8.03507813 -2.38367188 8.94515625 -2.87109375 9.8828125 C-3.24363281 10.58148437 -3.61617187 11.28015625 -4 12 C-5 9 -5 9 -4.2578125 6.9921875 C-3.88398437 6.29351563 -3.51015625 5.59484375 -3.125 4.875 C-2.75632812 4.17117188 -2.38765625 3.46734375 -2.0078125 2.7421875 C-1 1 -1 1 0 0 Z " fill="#082C65" transform="translate(721,559)"/>
<path d="M0 0 C0.33 0.99 0.66 1.98 1 3 C-1.64 4.98 -4.28 6.96 -7 9 C-5.04783565 5.09567131 -3.12613393 2.96160056 0 0 Z " fill="#073D72" transform="translate(384,528)"/>
<path d="M0 0 C3.82097239 0.53069061 6.06171403 1.49701566 9 4 C8.34 4.66 7.68 5.32 7 6 C5.83054208 5.19152271 4.66449539 4.37810888 3.5 3.5625 C2.8503125 3.11003906 2.200625 2.65757813 1.53125 2.19140625 C1.0259375 1.79824219 0.520625 1.40507813 0 1 C0 0.67 0 0.34 0 0 Z " fill="#195B94" transform="translate(597,122)"/>
<path d="M0 0 C0.80824219 0.19464844 1.61648438 0.38929688 2.44921875 0.58984375 C3.06410156 0.74582031 3.67898438 0.90179687 4.3125 1.0625 C4.3125 1.3925 4.3125 1.7225 4.3125 2.0625 C-4.25892857 2.34821429 -4.25892857 2.34821429 -7.6875 0.0625 C-4.39053895 -1.03648702 -3.28255097 -0.80874444 0 0 Z " fill="#0A275F" transform="translate(363.6875,749.9375)"/>
<path d="M0 0 C0.66 0.33 1.32 0.66 2 1 C-2.625 6.875 -2.625 6.875 -6 8 C-4.55746343 4.63408134 -2.66735273 2.48952921 0 0 Z " fill="#0D5995" transform="translate(154,177)"/>
<path d="M0 0 C0.66 0.66 1.32 1.32 2 2 C0.68 3.32 -0.64 4.64 -2 6 C-2.99 5.67 -3.98 5.34 -5 5 C-3.35 3.35 -1.7 1.7 0 0 Z " fill="#256AA1" transform="translate(159,171)"/>
<path d="M0 0 C0.66 0.33 1.32 0.66 2 1 C-0.38957269 4.24299151 -2.2047869 6.50902342 -6 8 C-4.55746343 4.63408134 -2.66735273 2.48952921 0 0 Z " fill="#0D5A96" transform="translate(178,153)"/>
<path d="M0 0 C0.99 0.66 1.98 1.32 3 2 C-3.625 2.25 -3.625 2.25 -7 0 C-3.8195064 -1.06016453 -3.04021693 -1.04507457 0 0 Z " fill="#072961" transform="translate(347,747)"/>
<path d="M0 0 C2.97 0.99 5.94 1.98 9 3 C8.67 3.66 8.34 4.32 8 5 C4.62537285 4.45276317 2.91765 3.9451 0 2 C0 1.34 0 0.68 0 0 Z " fill="#39B3DA" transform="translate(525,613)"/>
<path d="M0 0 C0.33 0.99 0.66 1.98 1 3 C0.01 3.66 -0.98 4.32 -2 5 C-2 5.99 -2 6.98 -2 8 C-2.99 7.67 -3.98 7.34 -5 7 C-2.25 1.125 -2.25 1.125 0 0 Z " fill="#165A93" transform="translate(105,247)"/>
<path d="M0 0 C0 0.66 0 1.32 0 2 C1.65 2 3.3 2 5 2 C5 2.33 5 2.66 5 3 C0.71 2.67 -3.58 2.34 -8 2 C-8 1.67 -8 1.34 -8 1 C-2.25 0 -2.25 0 0 0 Z " fill="#2473AA" transform="translate(455,68)"/>
</svg>
